<?xml version="1.0" encoding="utf-8"?>
<!-- Generator: Adobe Illustrator 16.0.4, SVG Export Plug-In . SVG Version: 6.00 Build 0)  -->
<!DOCTYPE svg PUBLIC "-//W3C//DTD SVG 1.1//EN" "http://www.w3.org/Graphics/SVG/1.1/DTD/svg11.dtd">
<svg version="1.1" xmlns="http://www.w3.org/2000/svg" xmlns:xlink="http://www.w3.org/1999/xlink" x="0px" y="0px" width="960px"
	 height="600px" viewBox="0 0 960 600" enable-background="new 0 0 960 600" xml:space="preserve">
<g id="background">
	<g id="Layer_1_1_">
		
			<rect x="140.421" y="-52.119" transform="matrix(-0.7071 -0.7071 0.7071 -0.7071 616.1464 830.1361)" width="679.158" height="679.158"/>
	</g>
</g>
<g id="red-stars">
	<polygon fill="#E82E2E" points="285.871,1.062 479.792,-192.569 959.889,287.527 479.015,768.4 312.938,601.062 -0.596,287.528 	
		"/>
	<circle fill="#E51A1A" stroke="#FFFFFF" stroke-miterlimit="10" cx="479.646" cy="285.528" r="13.534"/>
	<polygon fill="#C92020" points="337.07,453.92 354.942,490.131 394.903,495.938 365.987,524.125 372.813,563.925 337.07,545.134 
		301.329,563.925 308.154,524.125 279.237,495.938 319.199,490.131 	"/>
	<polygon fill="#C92020" points="99.07,221.92 116.941,258.131 156.903,263.938 127.986,292.125 134.813,331.926 99.07,313.135 
		63.328,331.926 70.153,292.125 41.237,263.938 81.198,258.131 	"/>
	<polygon fill="#C92020" points="357.736,5.253 375.608,41.464 415.569,47.271 386.653,75.458 393.479,115.259 357.736,96.468 
		321.994,115.259 328.82,75.458 299.903,47.271 339.865,41.464 	"/>
	<polygon fill="#C92020" points="603.07,5.253 620.942,41.464 660.904,47.271 631.987,75.458 638.813,115.259 603.07,96.468 
		567.328,115.259 574.154,75.458 545.238,47.271 585.199,41.464 	"/>
	<polygon fill="#C92020" points="603.07,467.92 620.942,504.131 660.904,509.938 631.987,538.125 638.813,577.925 603.07,559.134 
		567.328,577.925 574.154,538.125 545.238,509.938 585.199,504.131 	"/>
	<polygon fill="#C92020" points="852.868,218.123 870.74,254.333 910.702,260.14 881.785,288.328 888.611,328.127 852.868,309.336 
		817.125,328.127 823.952,288.328 795.036,260.14 834.997,254.333 	"/>
	<polygon fill="#C92020" points="479.646,218.123 497.518,254.333 537.479,260.14 508.562,288.328 515.389,328.127 479.646,309.336 
		443.902,328.127 450.729,288.328 421.813,260.14 461.774,254.333 	"/>
</g>
<g id="four-pillars">
	<polygon fill="#102040" points="286.224,1 480,-192.777 673.777,1 960.242,287.465 646.707,601 480,767.697 313.292,601 
		-0.242,287.466 	"/>
	<g id="pillars">
		<path fill="#FFCC00" d="M419.266,371.654"/>
		<path fill="#FFCC00" d="M413.119,289.764v-17.47h-29.073H382h-30.98v17.47c0,0,19.107,2.183,19.107,19.107
			c0,16.924,0,62.783,0,62.783s-3.268,16.102-16.102,16.102v19.158h27.976h2.046h26.24v-19.158
			c-12.093,0-15.171-16.102-15.171-16.102s0-45.859,0-62.783C395.114,291.947,413.119,289.764,413.119,289.764z"/>
		<path fill="#FFCC00" d="M478.091,289.764v-17.47h-29.073h-2.046H415.99v17.47c0,0,19.107,2.183,19.107,19.107
			c0,16.924,0,62.783,0,62.783s-3.267,16.102-16.101,16.102v19.158h27.975h2.046h26.24v-19.158
			c-12.093,0-15.171-16.102-15.171-16.102s0-45.859,0-62.783C460.087,291.947,478.091,289.764,478.091,289.764z"/>
		<path fill="#FFCC00" d="M543.468,289.764v-17.47h-29.073h-2.047h-30.979v17.47c0,0,19.106,2.183,19.106,19.107
			c0,16.924,0,62.783,0,62.783s-3.267,16.102-16.101,16.102v19.158h27.974h2.047h26.24v-19.158
			c-12.093,0-15.171-16.102-15.171-16.102s0-45.859,0-62.783C525.464,291.947,543.468,289.764,543.468,289.764z"/>
		<path fill="#FFCC00" d="M608.981,289.764v-17.47h-29.073h-2.047h-30.98v17.47c0,0,19.107,2.183,19.107,19.107
			c0,16.924,0,62.783,0,62.783s-3.269,16.102-16.103,16.102v19.158h27.976h2.047h26.24v-19.158
			c-12.095,0-15.173-16.102-15.173-16.102s0-45.859,0-62.783C590.977,291.947,608.981,289.764,608.981,289.764z"/>
		<rect x="351.018" y="262.33" fill="#FFCC00" width="257.965" height="6.961"/>
		<polygon fill="#FFCC00" points="351.018,259.463 608.981,259.463 478.091,181.667 		"/>
		<rect x="351.018" y="409.326" fill="#FFCC00" width="257.965" height="9.008"/>
	</g>
</g>
<g id="waves">
	<polygon fill="#E2982B" points="286.224,1 476.034,-196.743 960.242,287.465 480.615,767.092 313.292,601 -0.242,287.466 	"/>
	<g>
		<path fill="#FFCC00" d="M-0.242,288.216c0,0,0.747-1.251,2.538-3.428c1.798-2.159,4.623-5.291,8.921-8.686
			c4.277-3.401,9.981-7.123,17.25-10.374c7.253-3.266,16.082-5.995,26.233-7.573c2.548-0.316,5.164-0.641,7.847-0.974
			c2.699-0.143,5.465-0.29,8.297-0.441c0.725-0.023,1.387-0.102,2.174-0.081c0.714,0.009,1.414,0,2.15,0.024
			c0.758,0.047,1.52,0.094,2.287,0.141c0.755,0.092,1.515,0.186,2.279,0.279c3.047,0.475,6.193,1.41,9.111,3.116
			c1.438,0.885,2.798,1.948,4.019,3.184c1.194,1.258,2.232,2.669,3.113,4.17c1.735,3.024,2.795,6.348,3.556,9.693
			c1.494,6.717,1.903,13.618,2.82,20.535c0.894,6.889,2.223,13.926,5.447,20.12c3.169,6.199,8.494,11.174,15.271,14.123
			c6.731,3.032,14.528,4.419,22.564,4.928c4.032,0.243,8.127,0.328,12.311,0.159c1.088-0.013,2.077-0.097,3.097-0.158
			c1.014-0.057,2.034-0.127,3.065-0.247c2.062-0.188,4.11-0.474,6.138-0.834c4.052-0.729,8.02-1.848,11.64-3.528
			c3.604-1.703,6.772-4.035,9.194-7.025c2.389-3.019,4.042-6.678,5.061-10.738c1.012-4.067,1.488-8.452,1.729-13.005
			c0.259-4.551,0.292-9.271,0.529-14.139c0.239-4.869,0.631-9.922,1.8-15.108c1.169-5.152,3.318-10.56,7.06-15.074
			c1.85-2.25,4.045-4.229,6.424-5.871c2.379-1.659,4.949-2.904,7.545-3.952c2.603-1.073,5.262-1.754,7.921-2.397
			c2.66-0.548,5.333-1.002,7.996-1.264c1.333-0.142,2.667-0.276,3.995-0.338c1.332-0.09,2.663-0.165,3.988-0.18l1.993-0.049
			c0.212-0.001,0.229-0.013,0.603-0.006l0.478,0.006l0.956,0.012c1.277,0.018,2.517,0.013,3.961,0.118
			c1.397,0.077,2.802,0.151,4.158,0.322l2.056,0.223l2.063,0.326c2.755,0.411,5.517,1.115,8.267,1.931
			c2.73,0.934,5.467,1.976,8.07,3.425c2.595,1.438,5.119,3.105,7.385,5.107c2.266,1.994,4.316,4.231,6.111,6.629
			c1.791,2.403,3.287,4.967,4.6,7.577c1.322,2.611,2.385,5.295,3.313,7.985c0.935,2.691,1.724,5.398,2.409,8.097
			c2.751,10.799,4.202,21.532,6.689,31.731c2.446,10.149,6.018,19.87,12.493,26.91c1.622,1.742,3.397,3.325,5.307,4.754
			c1.947,1.384,4.017,2.619,6.214,3.682c4.417,2.088,9.305,3.482,14.392,4.361c5.094,0.875,10.395,1.218,15.759,1.208l0.501,0.007
			c-0.109,0.006,0.273-0.007,0.385-0.009l1.056-0.028l2.114-0.058l1.051-0.031l0.951-0.074l1.903-0.144
			c2.547-0.214,5.19-0.572,7.72-1.057c1.286-0.205,2.517-0.569,3.78-0.839c1.248-0.31,2.463-0.705,3.697-1.051
			c2.403-0.839,4.789-1.726,7.03-2.882c2.287-1.075,4.397-2.448,6.48-3.855c2.009-1.514,3.999-3.069,5.782-4.89
			c0.467-0.428,0.906-0.891,1.336-1.365l1.302-1.406c0.815-0.998,1.68-1.944,2.441-3.002c1.601-2.034,3.02-4.255,4.402-6.51
			c2.696-4.573,5.036-9.475,7.075-14.608c4.121-10.255,7.232-21.234,10.7-32.365c3.478-11.117,7.224-22.547,13.229-33.481
			c3.052-5.428,6.68-10.731,11.243-15.383c0.554-0.593,1.129-1.168,1.739-1.714c0.601-0.553,1.19-1.118,1.805-1.657
			c1.27-1.037,2.507-2.114,3.866-3.045c2.642-1.958,5.51-3.607,8.453-5.045c5.922-2.813,12.232-4.613,18.504-5.473
			c3.138-0.434,6.275-0.712,9.386-0.793l2.333-0.051l0.583-0.012c0.161-0.008,0.708,0.002,0.732,0.006l1.088,0.03
			c1.47,0.051,2.815,0.041,4.534,0.209c1.639,0.127,3.283,0.254,4.839,0.511l2.365,0.341l2.362,0.483
			c3.151,0.619,6.264,1.611,9.327,2.73c6.067,2.421,11.854,5.878,16.646,10.305c2.462,2.154,4.589,4.589,6.635,7.048
			c1.961,2.512,3.806,5.092,5.405,7.765c3.278,5.321,5.818,10.871,8.091,16.414c4.475,11.117,7.669,22.295,11.006,33.174
			c3.318,10.871,6.705,21.512,11.128,31.415c4.408,9.871,9.866,19.062,17.128,26.281c7.202,7.262,16.115,12.481,25.904,15.488
			c9.788,3.017,20.259,4.122,30.697,3.99c1.339-0.026,2.765-0.003,4.029-0.07l3.838-0.169c2.575-0.191,5.168-0.373,7.699-0.716
			c5.077-0.639,10.037-1.626,14.705-3.129c9.371-2.945,17.361-8.236,22.289-15.967c5.018-7.71,7.097-17.41,8.342-27.231
			c1.272-9.875,1.652-20.059,3.469-30.364c0.46-2.574,1.008-5.157,1.746-7.729c0.714-2.569,1.594-5.133,2.735-7.628
			c2.202-4.993,5.531-9.741,9.793-13.349l0.79-0.683l0.833-0.624c0.56-0.407,1.103-0.843,1.678-1.219
			c1.165-0.727,2.31-1.494,3.526-2.085c2.388-1.308,4.885-2.229,7.367-3.073c4.994-1.579,10.021-2.331,14.94-2.709
			c4.92-0.355,9.781-0.276,14.439-0.063c4.827,0.238,9.498,0.697,14.189,1.545c4.67,0.848,9.296,2.087,13.731,3.932
			c4.434,1.815,8.665,4.353,12.262,7.644c3.572,3.31,6.426,7.364,8.291,11.66c1.922,4.288,2.968,8.727,3.645,13.036
			c1.3,8.64,1.144,16.885,1.808,24.545c0.336,3.817,0.886,7.5,2.045,10.753c1.147,3.254,2.922,6.029,5.472,7.939
			c1.264,0.966,2.684,1.747,4.197,2.376c1.544,0.574,3.135,1.075,4.806,1.368c3.338,0.655,6.717,0.802,10.231,0.737
			c6.692-0.139,13.435-1.219,18.257-4.626c2.415-1.679,4.249-3.955,5.489-6.574c1.27-2.607,1.997-5.5,2.478-8.414
			c0.952-5.851,1.041-11.765,1.823-17.444c0.385-2.84,0.94-5.641,1.862-8.298c0.909-2.655,2.242-5.152,3.982-7.244
			c1.763-2.069,3.87-3.739,6.113-4.901c2.235-1.184,4.549-1.962,6.809-2.511c4.539-1.071,8.867-1.246,12.845-1.227l0.744,0.002
			l0.753,0.034c0.483,0.024,0.962,0.048,1.436,0.072c0.965,0.108,1.938,0.175,2.853,0.356c1.847,0.277,3.578,0.825,5.168,1.474
			c3.189,1.328,5.639,3.521,7.125,5.875c1.499,2.367,2.155,4.775,2.474,6.838c0.296,2.077,0.298,3.841,0.206,5.248
			c-0.089,1.408-0.251,2.466-0.378,3.169c-0.128,0.704-0.222,1.055-0.222,1.055s0.077-0.355,0.173-1.062
			c0.094-0.707,0.207-1.768,0.23-3.168c0.025-1.399-0.059-3.146-0.442-5.165c-0.408-2.004-1.146-4.31-2.662-6.499
			c-1.509-2.178-3.874-4.125-6.924-5.251c-1.524-0.547-3.173-1.001-4.947-1.192c-0.882-0.138-1.774-0.159-2.697-0.228
			c-0.475-0.004-0.954-0.009-1.438-0.013l-0.705-0.004l-0.729,0.028c-3.896,0.135-8.1,0.501-12.34,1.673
			c-4.204,1.158-8.521,3.259-11.433,7.024c-2.944,3.742-4.205,8.853-4.729,14.287c-0.567,5.465-0.438,11.344-1.225,17.623
			c-0.408,3.13-1.079,6.397-2.487,9.582c-0.702,1.586-1.599,3.138-2.706,4.569c-1.115,1.426-2.441,2.716-3.908,3.817
			c-2.939,2.224-6.398,3.647-9.911,4.544c-3.546,0.906-7.116,1.354-10.85,1.525c-3.547,0.166-7.398,0.137-11.248-0.507
			c-1.936-0.287-3.888-0.818-5.829-1.488c-1.931-0.731-3.838-1.696-5.598-2.965c-1.762-1.262-3.349-2.847-4.625-4.632
			c-1.287-1.78-2.285-3.732-3.058-5.725c-1.549-4.002-2.244-8.125-2.728-12.187c-0.946-8.124-0.965-16.237-2.352-24.07
			c-0.702-3.895-1.719-7.709-3.373-11.171c-1.611-3.486-3.912-6.557-6.776-9.107c-2.896-2.522-6.351-4.524-10.17-5.984
			c-3.806-1.483-7.918-2.502-12.173-3.173c-4.24-0.672-8.697-1.007-13.085-1.122c-4.557-0.104-9.019-0.067-13.457,0.354
			c-4.422,0.444-8.799,1.224-12.894,2.584c-2.015,0.731-4.021,1.5-5.835,2.546c-0.947,0.469-1.788,1.075-2.667,1.631
			c-0.432,0.289-0.821,0.626-1.236,0.934l-0.615,0.47l-0.571,0.518c-1.569,1.336-2.904,2.921-4.11,4.622
			c-1.217,1.693-2.217,3.587-3.076,5.589c-0.876,1.992-1.573,4.123-2.148,6.333c-0.594,2.2-1.044,4.494-1.422,6.835
			c-1.516,9.386-1.751,19.48-2.904,29.931c-0.569,5.228-1.395,10.578-2.8,15.957c-0.715,2.689-1.607,5.376-2.668,8.037
			c-1.112,2.649-2.415,5.26-3.96,7.772c-1.592,2.483-3.377,4.88-5.423,7.064c-2.073,2.145-4.282,4.201-6.727,5.903
			c-4.825,3.53-10.234,5.995-15.709,7.833c-5.492,1.827-11.104,2.985-16.717,3.75c-2.812,0.406-5.613,0.634-8.438,0.868
			l-4.288,0.229c-1.447,0.084-2.741,0.071-4.121,0.112l-2.041,0.042l-2.215-0.024c-1.423-0.03-2.845-0.027-4.272-0.087l-4.292-0.252
			c-1.433-0.079-2.869-0.277-4.306-0.413c-5.745-0.653-11.521-1.736-17.208-3.446c-5.682-1.705-11.267-4.052-16.509-7.103
			c-5.245-3.042-10.129-6.786-14.47-11.053c-4.36-4.256-8.14-9.045-11.411-14.079c-3.281-5.035-6.075-10.314-8.531-15.687
			c-4.854-10.777-8.395-21.879-11.786-32.839c-3.39-10.951-6.572-21.855-10.737-32.083c-2.104-5.087-4.407-10.042-7.206-14.537
			c-1.368-2.276-2.904-4.386-4.496-6.425c-1.658-1.962-3.342-3.901-5.251-5.543l-0.696-0.64l-0.735-0.588l-1.467-1.177
			c-1.039-0.691-2.016-1.482-3.111-2.084c-2.098-1.358-4.403-2.363-6.719-3.339c-2.382-0.844-4.801-1.629-7.343-2.112l-1.896-0.387
			l-1.938-0.268c-1.308-0.217-2.556-0.295-3.807-0.396c-10.858-0.694-21.697,0.531-30.81,4.923
			c-2.268,1.105-4.464,2.344-6.487,3.843c-1.046,0.699-1.993,1.541-2.98,2.326c-0.476,0.417-0.933,0.858-1.402,1.284
			c-0.476,0.418-0.927,0.867-1.363,1.336c-3.591,3.626-6.606,7.959-9.249,12.618c-5.226,9.411-8.859,20.106-12.293,31.019
			c-3.451,10.925-6.657,22.188-11.15,33.289c-2.228,5.549-4.851,11.047-8,16.343c-1.618,2.628-3.304,5.235-5.247,7.701
			c-0.922,1.26-1.982,2.436-2.988,3.643c-0.525,0.588-1.076,1.158-1.613,1.736c-0.535,0.582-1.083,1.152-1.667,1.691
			c-2.235,2.251-4.746,4.234-7.304,6.126c-2.633,1.788-5.333,3.5-8.198,4.851c-5.68,2.818-11.715,4.701-17.755,5.771
			c-3.037,0.547-6.008,0.922-9.09,1.15l-2.322,0.147l-1.16,0.07l-1.063,0.021l-2.114,0.036l-1.056,0.019l-0.671,0.006l-0.554-0.012
			c-5.896-0.051-11.846-0.479-17.785-1.556c-5.928-1.084-11.87-2.804-17.494-5.535c-2.803-1.385-5.502-3.023-8.053-4.888
			c-2.518-1.913-4.865-4.051-6.981-6.38c-4.191-4.701-7.376-10.092-9.688-15.58c-1.185-2.743-2.157-5.52-3.001-8.288
			c-0.857-2.77-1.576-5.536-2.209-8.283c-2.543-10.982-3.894-21.71-6.344-31.66c-2.425-9.893-6.064-19.094-12.734-25.005
			c-1.636-1.502-3.481-2.751-5.414-3.873c-1.932-1.129-4.06-1.967-6.208-2.754c-2.205-0.683-4.444-1.311-6.78-1.692l-1.743-0.308
			l-1.772-0.219c-1.189-0.173-2.344-0.247-3.5-0.333c-1.106-0.113-2.424-0.134-3.697-0.171l-0.956-0.028l-0.478-0.014
			c0.055-0.005-0.247,0.001-0.353,0.001l-1.825,0.016c-1.219-0.007-2.424,0.042-3.624,0.104c-1.207,0.034-2.392,0.138-3.575,0.243
			c-2.372,0.192-4.677,0.554-6.943,0.976c-2.223,0.506-4.441,1.029-6.466,1.836c-4.112,1.522-7.64,3.79-10.227,6.85
			c-2.611,3.042-4.313,6.905-5.356,11.158c-1.038,4.262-1.501,8.831-1.799,13.48c-0.291,4.659-0.456,9.406-0.829,14.222
			c-0.369,4.806-0.979,9.71-2.307,14.573c-1.328,4.849-3.568,9.681-6.92,13.695c-1.688,1.989-3.62,3.738-5.678,5.236
			c-2.051,1.528-4.28,2.672-6.5,3.711c-4.492,1.963-9.097,3.114-13.622,3.827c-2.264,0.351-4.516,0.61-6.748,0.764
			c-1.112,0.104-2.236,0.157-3.362,0.194c-1.12,0.042-2.263,0.104-3.306,0.092c-4.335,0.075-8.676-0.106-12.951-0.463
			c-8.532-0.746-17.027-2.372-24.704-6.109c-1.925-0.896-3.749-2.015-5.515-3.183c-1.726-1.238-3.412-2.53-4.896-4.035
			c-1.506-1.473-2.883-3.067-4.067-4.769c-1.211-1.684-2.243-3.464-3.118-5.282c-1.78-3.634-2.916-7.411-3.735-11.116
			c-0.807-3.714-1.286-7.375-1.644-10.943c-0.728-7.126-0.957-13.958-2.167-20.2c-0.607-3.109-1.489-6.054-2.847-8.612
			c-0.688-1.269-1.489-2.438-2.408-3.483c-0.944-1.02-2-1.907-3.142-2.673c-2.329-1.469-4.992-2.394-7.719-2.916
			c-0.689-0.109-1.375-0.217-2.057-0.325c-0.681-0.066-1.357-0.133-2.03-0.199c-0.696-0.048-1.424-0.065-2.129-0.099
			c-0.632-0.043-1.378,0.009-2.056,0.009c-2.775,0.05-5.486,0.099-8.131,0.147c-2.634,0.234-5.203,0.463-7.705,0.685
			c-9.977,1.21-18.711,3.562-25.969,6.459c-7.267,2.9-13.042,6.337-17.408,9.528c-4.381,3.192-7.34,6.153-9.226,8.224
			C0.562,287-0.242,288.216-0.242,288.216z"/>
	</g>
	<g>
		<path fill="#FFCC00" d="M114.278,172.944c0,0,0.984-0.047,2.89-0.138c0.954-0.03,2.135-0.128,3.534-0.247
			c1.401-0.093,3.017-0.297,4.844-0.505c3.644-0.486,8.129-1.24,13.208-2.762c5.059-1.537,10.722-3.906,16.246-7.765
			c5.523-3.853,10.724-9.318,15.038-16.207c4.378-6.863,7.945-15.003,11.949-23.764c2.011-4.38,4.165-8.92,6.749-13.473
			c2.615-4.529,5.649-9.109,9.536-13.261c1.933-2.078,4.055-4.052,6.364-5.866c2.323-1.795,4.829-3.418,7.478-4.841
			c5.311-2.835,11.182-4.779,17.235-6.012c6.076-1.205,12.301-1.783,18.683-1.841c6.336-0.061,13.007,0.411,19.675,2.221
			c3.326,0.923,6.66,2.161,9.835,3.89c3.172,1.718,6.198,3.888,8.835,6.491c5.333,5.202,8.985,11.841,11.5,18.565
			c2.536,6.761,4.113,13.699,5.543,20.576c1.422,6.881,2.662,13.747,4.327,20.415c1.656,6.658,3.777,13.13,6.894,18.87
			c3.103,5.743,7.34,10.609,12.725,14.105c5.364,3.525,11.792,5.714,18.61,6.903c3.408,0.607,6.923,0.955,10.482,1.143
			c1.784,0.078,3.575,0.136,5.381,0.13l1.297-0.002l1.421-0.026l0.71-0.014l0.647-0.028l1.295-0.054
			c7.1-0.379,14.111-1.58,20.542-4.031c6.445-2.41,12.282-6.073,17.172-10.943c4.919-4.843,8.897-10.827,12.204-17.354
			c3.307-6.541,5.964-13.615,8.385-20.897c2.42-7.29,4.604-14.802,6.975-22.395c2.389-7.585,4.899-15.293,8.267-22.866
			c3.359-7.553,7.518-15.076,13.253-21.711c2.861-3.306,6.114-6.356,9.708-8.973c3.589-2.621,7.508-4.795,11.578-6.478
			c8.17-3.364,16.8-4.749,25.142-4.983c0.524-0.021,1.046-0.03,1.566-0.032l1.643-0.012c1.005,0.023,1.873,0.012,3.02,0.069
			c2.203,0.072,4.242,0.251,6.376,0.496c4.221,0.511,8.456,1.383,12.58,2.755c8.275,2.661,15.97,7.56,21.883,13.764
			c5.979,6.182,10.326,13.362,13.778,20.574c3.457,7.24,6.066,14.592,8.418,21.847c2.342,7.261,4.401,14.447,6.513,21.479
			c4.24,14.027,8.538,27.614,15.08,39.489c3.254,5.923,7.054,11.383,11.5,16.086c4.438,4.706,9.503,8.657,15.028,11.708
			c5.525,3.048,11.447,5.283,17.518,6.799c6.072,1.519,12.274,2.348,18.433,2.719c3.073,0.184,6.156,0.235,9.236,0.208
			c3.028-0.025,6.073-0.136,9.044-0.352c5.951-0.432,11.731-1.288,17.149-2.776c5.412-1.483,10.458-3.634,14.714-6.629
			c4.26-2.987,7.625-6.879,9.953-11.294c2.35-4.411,3.702-9.27,4.523-14.115c0.815-4.857,1.115-9.721,1.26-14.461
			c0.245-9.491-0.043-18.531,0.58-26.943c0.316-4.203,0.849-8.254,1.818-12.054c0.951-3.797,2.365-7.337,4.262-10.382
			c1.886-3.053,4.275-5.551,6.815-7.442c2.537-1.911,5.206-3.225,7.741-4.214c5.111-1.921,9.693-2.591,13.374-2.97
			c3.692-0.363,6.532-0.381,8.44-0.377c1.908,0.028,2.894,0.042,2.894,0.042s-0.983,0.043-2.889,0.127
			c-1.902,0.102-4.729,0.303-8.364,0.853c-3.62,0.562-8.107,1.467-12.937,3.577c-2.394,1.08-4.866,2.467-7.145,4.377
			c-2.277,1.9-4.362,4.299-5.981,7.186c-3.293,5.788-4.532,13.302-4.755,21.45c-0.265,8.188,0.479,17.117,0.554,26.819
			c0.028,4.852-0.089,9.911-0.771,15.146c-0.692,5.218-1.959,10.666-4.488,15.878c-2.494,5.209-6.368,10.053-11.248,13.737
			c-4.866,3.708-10.552,6.343-16.472,8.133c-5.93,1.812-12.111,2.896-18.396,3.536c-3.151,0.319-6.303,0.525-9.531,0.646
			c-3.176,0.111-6.409,0.171-9.699,0.096c-6.561-0.162-13.28-0.807-20.028-2.24c-6.742-1.417-13.515-3.692-19.921-7.045
			c-6.415-3.327-12.415-7.76-17.64-13.028c-5.24-5.265-9.68-11.337-13.431-17.769c-7.501-12.915-12.44-27.085-16.896-41.227
			c-2.244-7.077-4.399-14.172-6.771-21.149c-2.375-6.968-4.956-13.841-8.154-20.272c-3.19-6.422-7.025-12.405-11.834-17.212
			c-4.784-4.832-10.566-8.357-17.053-10.458c-3.238-1.061-6.652-1.753-10.154-2.159c-1.731-0.19-3.575-0.341-5.268-0.384
			c-0.801-0.045-1.882-0.034-2.826-0.05l-1.283,0.02c-0.455,0.003-0.908,0.013-1.359,0.035c-7.236,0.236-14.308,1.479-20.658,4.135
			c-6.353,2.648-11.903,6.765-16.438,12.086c-4.553,5.312-8.125,11.719-11.115,18.55c-5.992,13.729-9.875,28.944-14.985,44.095
			c-2.568,7.583-5.448,15.205-9.224,22.587c-3.776,7.357-8.515,14.521-14.692,20.548c-6.128,6.048-13.678,10.762-21.661,13.633
			c-7.998,2.899-16.271,4.132-24.33,4.439l-1.552,0.041l-0.775,0.019l-0.712,0.003l-1.422,0.004l-1.544-0.02
			c-1.981-0.024-3.969-0.118-5.955-0.236c-3.975-0.271-7.957-0.724-11.921-1.492c-7.899-1.507-15.853-4.254-22.792-8.964
			c-3.459-2.337-6.619-5.145-9.325-8.275c-2.712-3.129-4.972-6.561-6.822-10.094c-3.703-7.093-5.787-14.496-7.4-21.644
			c-1.594-7.169-2.668-14.18-3.889-20.932c-1.218-6.744-2.557-13.265-4.633-19.245c-2.063-5.971-4.935-11.356-8.948-15.477
			c-3.973-4.152-9.069-7.022-14.645-8.742c-5.586-1.734-11.511-2.409-17.443-2.556c-5.905-0.134-11.754,0.236-17.298,1.159
			c-11.107,1.841-21.008,6.557-28.151,13.858c-7.244,7.223-11.987,16.208-16.311,24.688c-2.16,4.262-4.228,8.45-6.373,12.443
			c-2.176,3.979-4.411,7.776-6.87,11.24c-4.842,6.977-10.635,12.516-16.609,16.265c-5.973,3.783-11.959,5.881-17.202,7.157
			c-5.265,1.263-9.831,1.768-13.522,2.052c-1.85,0.112-3.481,0.217-4.895,0.218c-1.412,0.03-2.596,0.055-3.55,0.024
			C115.263,172.959,114.278,172.944,114.278,172.944z"/>
	</g>
	<g>
		<path fill="#FFCC00" d="M178.651,466.349c0,0,3.527-0.177,10.103-0.693c3.284-0.272,7.335-0.675,12.023-1.379
			c2.339-0.361,4.844-0.815,7.403-1.517c1.276-0.352,2.564-0.776,3.78-1.322c1.204-0.535,2.363-1.255,2.986-2.065
			c0.597-0.808,0.641-1.497,0.261-2.684c-0.393-1.157-1.206-2.472-2.126-3.826c-0.922-1.372-1.981-2.791-2.967-4.528
			c-0.485-0.879-0.966-1.838-1.291-3.028c-0.323-1.164-0.454-2.698,0.068-4.194c0.508-1.496,1.534-2.649,2.53-3.438
			c1.011-0.798,2.05-1.358,3.076-1.815c2.057-0.907,4.108-1.469,6.182-1.946c4.143-0.928,8.381-1.437,12.747-1.796
			c4.363-0.359,8.848-0.578,13.455-0.712c1.257-0.028,2.262-0.043,3.543-0.021c1.241,0.012,2.444,0.058,3.676,0.123
			c2.457,0.136,4.959,0.383,7.495,0.791c5.06,0.812,10.306,2.265,15.315,4.861c2.499,1.293,4.921,2.874,7.163,4.736
			c2.237,1.866,4.284,4.013,6.083,6.349c3.625,4.677,6.206,10.05,8.172,15.53c1.967,5.497,3.339,11.146,4.559,16.809
			c2.439,11.296,4.161,22.874,8.048,33.532c1.958,5.294,4.439,10.316,7.834,14.557c3.369,4.258,7.651,7.694,12.667,10.171
			c5.011,2.483,10.688,4.057,16.647,4.914c5.944,0.875,12.228,1.082,18.48,0.837c12.317-0.502,24.536-3.732,33.972-11.17
			c4.734-3.685,8.803-8.326,12.214-13.624c3.426-5.29,6.224-11.187,8.686-17.359c4.939-12.374,8.454-25.815,12.925-39.392
			c2.244-6.792,4.733-13.65,7.957-20.377c3.221-6.71,7.186-13.346,12.442-19.202c5.214-5.859,11.802-10.788,19.062-13.985
			c7.253-3.246,14.986-4.828,22.525-5.387c3.79-0.28,7.516-0.297,11.229-0.146c3.763,0.158,7.508,0.543,11.277,1.217
			c3.762,0.686,7.528,1.67,11.198,3.089c3.668,1.407,7.223,3.289,10.49,5.591c3.27,2.301,6.228,5.044,8.762,8.055
			c2.539,3.011,4.656,6.271,6.437,9.604c3.561,6.686,5.828,13.599,7.703,20.345c1.859,6.758,3.312,13.408,4.854,19.866
			c1.541,6.457,3.161,12.732,5.182,18.699c2.027,5.96,4.521,11.595,7.747,16.605c3.211,5.017,7.162,9.387,11.771,12.904
			c4.604,3.521,9.812,6.22,15.297,8.189c5.484,1.973,11.208,3.323,16.974,4.184c5.747,0.874,11.617,1.262,17.277,1.394
			c5.946,0.064,11.478-0.061,17.087-0.445c11.118-0.766,21.763-2.622,31.304-6.132c9.571-3.443,17.77-8.936,24.029-15.758
			c6.316-6.805,10.733-14.707,14.923-22.172c4.184-7.474,8.29-14.619,13.33-20.358c4.988-5.771,10.801-9.971,16.487-12.628
			c5.696-2.672,11.136-4.077,15.876-4.92c4.75-0.839,8.83-1.193,12.137-1.339c1.651-0.107,3.113-0.104,4.373-0.13
			c1.26-0.035,2.32-0.013,3.174,0.001c1.706,0.024,2.587,0.037,2.587,0.037s-0.88,0.038-2.584,0.112
			c-0.852,0.036-1.909,0.074-3.163,0.182c-1.253,0.098-2.707,0.182-4.343,0.378c-3.276,0.312-7.307,0.872-11.938,1.938
			c-4.621,1.065-9.862,2.724-15.199,5.566c-5.354,2.797-10.655,7.002-15.152,12.684c-4.548,5.659-8.212,12.698-12.066,20.359
			c-3.887,7.624-8.166,16.004-14.707,23.616c-6.477,7.621-15.354,14.036-25.539,18.109c-10.16,4.198-21.379,6.414-32.927,7.549
			c-5.738,0.564-11.786,0.864-17.599,0.964c-6.096,0.105-12.175-0.047-18.433-0.732c-6.229-0.693-12.585-1.834-18.847-3.914
			c-6.259-2.041-12.449-4.986-18.068-9.029c-5.625-4.028-10.569-9.19-14.517-14.984c-3.974-5.792-6.981-12.148-9.395-18.609
			c-4.857-12.944-7.291-26.392-11.03-39.019c-1.863-6.299-4.044-12.411-7.057-17.813c-2.995-5.41-6.875-10-11.746-13.275
			c-9.706-6.623-23.217-8.075-36.211-7.145c-6.429,0.517-12.645,1.924-18.249,4.44c-5.614,2.503-10.554,6.203-14.695,10.861
			c-4.157,4.648-7.52,10.212-10.36,16.177c-2.834,5.979-5.18,12.351-7.355,18.866c-4.352,13.046-7.932,26.706-13.299,40.099
			c-2.698,6.684-5.892,13.305-9.98,19.528c-4.068,6.215-9.148,11.99-15.187,16.607c-6.021,4.633-12.928,8.021-19.99,10.073
			c-7.079,2.087-14.218,2.995-21.261,3.197c-6.936,0.16-13.793-0.158-20.67-1.271c-6.846-1.099-13.692-3.05-20.032-6.312
			c-6.337-3.233-12.03-7.94-16.271-13.502c-4.286-5.549-7.194-11.738-9.246-17.839c-2.072-6.118-3.39-12.184-4.517-18.064
			c-1.118-5.886-2.017-11.605-3.052-17.104c-1.035-5.494-2.194-10.779-3.809-15.677c-1.614-4.89-3.683-9.398-6.449-13.156
			c-2.754-3.764-6.171-6.778-10.079-8.977c-3.903-2.208-8.243-3.614-12.647-4.479c-2.204-0.436-4.427-0.738-6.646-0.938
			c-1.106-0.099-2.228-0.181-3.298-0.229c-1.029-0.065-2.321-0.076-3.343-0.111c-4.511-0.121-8.883-0.151-13.089-0.04
			c-4.198,0.13-8.253,0.354-11.996,0.903c-1.858,0.286-3.651,0.663-5.177,1.211c-0.761,0.27-1.436,0.597-1.943,0.934
			c-0.511,0.345-0.777,0.658-0.906,0.917c-0.133,0.256-0.195,0.642-0.086,1.234c0.104,0.581,0.367,1.276,0.695,1.978
			c0.669,1.418,1.586,2.876,2.462,4.393c0.868,1.53,1.775,3.107,2.291,5.078c0.239,0.985,0.356,2.114,0.122,3.264
			c-0.227,1.152-0.84,2.2-1.549,2.95c-1.453,1.494-3.06,2.163-4.541,2.703c-1.498,0.521-2.944,0.855-4.341,1.115
			c-2.794,0.512-5.396,0.751-7.812,0.914c-4.832,0.313-8.923,0.249-12.234,0.208c-3.312-0.058-5.845-0.16-7.552-0.251
			C179.532,466.396,178.651,466.349,178.651,466.349z"/>
	</g>
</g>
<g id="green-waves">
	<polygon fill="#50E02D" points="286.224,1 480.571,-192.206 960.242,287.465 480.615,767.092 313.292,601 -0.242,287.466 	"/>
	<g>
		<path fill="#FFCC00" d="M-0.242,288.216c0,0,0.747-1.251,2.538-3.428c1.798-2.159,4.623-5.291,8.921-8.686
			c4.277-3.401,9.981-7.123,17.25-10.374c7.253-3.266,16.082-5.995,26.233-7.573c2.548-0.316,5.164-0.641,7.847-0.974
			c2.699-0.143,5.465-0.29,8.297-0.441c0.725-0.023,1.387-0.102,2.174-0.081c0.714,0.009,1.414,0,2.15,0.024
			c0.758,0.047,1.52,0.094,2.287,0.141c0.755,0.092,1.515,0.186,2.279,0.279c3.047,0.475,6.193,1.41,9.111,3.116
			c1.438,0.885,2.798,1.948,4.019,3.184c1.194,1.258,2.232,2.669,3.113,4.17c1.735,3.024,2.795,6.348,3.556,9.693
			c1.494,6.717,1.903,13.618,2.82,20.535c0.894,6.889,2.223,13.926,5.447,20.12c3.169,6.199,8.494,11.174,15.271,14.123
			c6.731,3.032,14.528,4.419,22.564,4.928c4.032,0.243,8.127,0.328,12.311,0.159c1.088-0.013,2.077-0.097,3.097-0.158
			c1.014-0.057,2.034-0.127,3.065-0.247c2.062-0.188,4.11-0.474,6.138-0.834c4.052-0.729,8.02-1.848,11.64-3.528
			c3.604-1.703,6.772-4.035,9.194-7.025c2.389-3.019,4.042-6.678,5.061-10.738c1.012-4.067,1.488-8.452,1.729-13.005
			c0.259-4.551,0.292-9.271,0.529-14.139c0.239-4.869,0.631-9.922,1.8-15.108c1.169-5.152,3.318-10.56,7.06-15.074
			c1.85-2.25,4.045-4.229,6.424-5.871c2.379-1.659,4.949-2.904,7.545-3.952c2.603-1.073,5.262-1.754,7.921-2.397
			c2.66-0.548,5.333-1.002,7.996-1.264c1.333-0.142,2.667-0.276,3.995-0.338c1.332-0.09,2.663-0.165,3.988-0.18l1.993-0.049
			c0.212-0.001,0.229-0.013,0.603-0.006l0.478,0.006l0.956,0.012c1.277,0.018,2.517,0.013,3.961,0.118
			c1.397,0.077,2.802,0.151,4.158,0.322l2.056,0.223l2.063,0.326c2.755,0.411,5.517,1.115,8.267,1.931
			c2.73,0.934,5.467,1.976,8.07,3.425c2.595,1.438,5.119,3.105,7.385,5.107c2.266,1.994,4.316,4.231,6.111,6.629
			c1.791,2.403,3.287,4.967,4.6,7.577c1.322,2.611,2.385,5.295,3.313,7.985c0.935,2.691,1.724,5.398,2.409,8.097
			c2.751,10.799,4.202,21.532,6.689,31.731c2.446,10.149,6.018,19.87,12.493,26.91c1.622,1.742,3.397,3.325,5.307,4.754
			c1.947,1.384,4.017,2.619,6.214,3.682c4.417,2.088,9.305,3.482,14.392,4.361c5.094,0.875,10.395,1.218,15.759,1.208l0.501,0.007
			c-0.109,0.006,0.273-0.007,0.385-0.009l1.056-0.028l2.114-0.058l1.051-0.031l0.951-0.074l1.903-0.144
			c2.547-0.214,5.19-0.572,7.72-1.057c1.286-0.205,2.517-0.569,3.78-0.839c1.248-0.31,2.463-0.705,3.697-1.051
			c2.403-0.839,4.789-1.726,7.03-2.882c2.287-1.075,4.397-2.448,6.48-3.855c2.009-1.514,3.999-3.069,5.782-4.89
			c0.467-0.428,0.906-0.891,1.336-1.365l1.302-1.406c0.815-0.998,1.68-1.944,2.441-3.002c1.601-2.034,3.02-4.255,4.402-6.51
			c2.696-4.573,5.036-9.475,7.075-14.608c4.121-10.255,7.232-21.234,10.7-32.365c3.478-11.117,7.224-22.547,13.229-33.481
			c3.052-5.428,6.68-10.731,11.243-15.383c0.554-0.593,1.129-1.168,1.739-1.714c0.601-0.553,1.19-1.118,1.805-1.657
			c1.27-1.037,2.507-2.114,3.866-3.045c2.642-1.958,5.51-3.607,8.453-5.045c5.922-2.813,12.232-4.613,18.504-5.473
			c3.138-0.434,6.275-0.712,9.386-0.793l2.333-0.051l0.583-0.012c0.161-0.008,0.708,0.002,0.732,0.006l1.088,0.03
			c1.47,0.051,2.815,0.041,4.534,0.209c1.639,0.127,3.283,0.254,4.839,0.511l2.365,0.341l2.362,0.483
			c3.151,0.619,6.264,1.611,9.327,2.73c6.067,2.421,11.854,5.878,16.646,10.305c2.462,2.154,4.589,4.589,6.635,7.048
			c1.961,2.512,3.806,5.092,5.405,7.765c3.278,5.321,5.818,10.871,8.091,16.414c4.475,11.117,7.669,22.295,11.006,33.174
			c3.318,10.871,6.705,21.512,11.128,31.415c4.408,9.871,9.866,19.062,17.128,26.281c7.202,7.262,16.115,12.481,25.904,15.488
			c9.788,3.017,20.259,4.122,30.697,3.99c1.339-0.026,2.765-0.003,4.029-0.07l3.838-0.169c2.575-0.191,5.168-0.373,7.699-0.716
			c5.077-0.639,10.037-1.626,14.705-3.129c9.371-2.945,17.361-8.236,22.289-15.967c5.018-7.71,7.097-17.41,8.342-27.231
			c1.272-9.875,1.652-20.059,3.469-30.364c0.46-2.574,1.008-5.157,1.746-7.729c0.714-2.569,1.594-5.133,2.735-7.628
			c2.202-4.993,5.531-9.741,9.793-13.349l0.79-0.683l0.833-0.624c0.56-0.407,1.103-0.843,1.678-1.219
			c1.165-0.727,2.31-1.494,3.526-2.085c2.388-1.308,4.885-2.229,7.367-3.073c4.994-1.579,10.021-2.331,14.94-2.709
			c4.92-0.355,9.781-0.276,14.439-0.063c4.827,0.238,9.498,0.697,14.189,1.545c4.67,0.848,9.296,2.087,13.731,3.932
			c4.434,1.815,8.665,4.353,12.262,7.644c3.572,3.31,6.426,7.364,8.291,11.66c1.922,4.288,2.968,8.727,3.645,13.036
			c1.3,8.64,1.144,16.885,1.808,24.545c0.336,3.817,0.886,7.5,2.045,10.753c1.147,3.254,2.922,6.029,5.472,7.939
			c1.264,0.966,2.684,1.747,4.197,2.376c1.544,0.574,3.135,1.075,4.806,1.368c3.338,0.655,6.717,0.802,10.231,0.737
			c6.692-0.139,13.435-1.219,18.257-4.626c2.415-1.679,4.249-3.955,5.489-6.574c1.27-2.607,1.997-5.5,2.478-8.414
			c0.952-5.851,1.041-11.765,1.823-17.444c0.385-2.84,0.94-5.641,1.862-8.298c0.909-2.655,2.242-5.152,3.982-7.244
			c1.763-2.069,3.87-3.739,6.113-4.901c2.235-1.184,4.549-1.962,6.809-2.511c4.539-1.071,8.867-1.246,12.845-1.227l0.744,0.002
			l0.753,0.034c0.483,0.024,0.962,0.048,1.436,0.072c0.965,0.108,1.938,0.175,2.853,0.356c1.847,0.277,3.578,0.825,5.168,1.474
			c3.189,1.328,5.639,3.521,7.125,5.875c1.499,2.367,2.155,4.775,2.474,6.838c0.296,2.077,0.298,3.841,0.206,5.248
			c-0.089,1.408-0.251,2.466-0.378,3.169c-0.128,0.704-0.222,1.055-0.222,1.055s0.077-0.355,0.173-1.062
			c0.094-0.707,0.207-1.768,0.23-3.168c0.025-1.399-0.059-3.146-0.442-5.165c-0.408-2.004-1.146-4.31-2.662-6.499
			c-1.509-2.178-3.874-4.125-6.924-5.251c-1.524-0.547-3.173-1.001-4.947-1.192c-0.882-0.138-1.774-0.159-2.697-0.228
			c-0.475-0.004-0.954-0.009-1.438-0.013l-0.705-0.004l-0.729,0.028c-3.896,0.135-8.1,0.501-12.34,1.673
			c-4.204,1.158-8.521,3.259-11.433,7.024c-2.944,3.742-4.205,8.853-4.729,14.287c-0.567,5.465-0.438,11.344-1.225,17.623
			c-0.408,3.13-1.079,6.397-2.487,9.582c-0.702,1.586-1.599,3.138-2.706,4.569c-1.115,1.426-2.441,2.716-3.908,3.817
			c-2.939,2.224-6.398,3.647-9.911,4.544c-3.546,0.906-7.116,1.354-10.85,1.525c-3.547,0.166-7.398,0.137-11.248-0.507
			c-1.936-0.287-3.888-0.818-5.829-1.488c-1.931-0.731-3.838-1.696-5.598-2.965c-1.762-1.262-3.349-2.847-4.625-4.632
			c-1.287-1.78-2.285-3.732-3.058-5.725c-1.549-4.002-2.244-8.125-2.728-12.187c-0.946-8.124-0.965-16.237-2.352-24.07
			c-0.702-3.895-1.719-7.709-3.373-11.171c-1.611-3.486-3.912-6.557-6.776-9.107c-2.896-2.522-6.351-4.524-10.17-5.984
			c-3.806-1.483-7.918-2.502-12.173-3.173c-4.24-0.672-8.697-1.007-13.085-1.122c-4.557-0.104-9.019-0.067-13.457,0.354
			c-4.422,0.444-8.799,1.224-12.894,2.584c-2.015,0.731-4.021,1.5-5.835,2.546c-0.947,0.469-1.788,1.075-2.667,1.631
			c-0.432,0.289-0.821,0.626-1.236,0.934l-0.615,0.47l-0.571,0.518c-1.569,1.336-2.904,2.921-4.11,4.622
			c-1.217,1.693-2.217,3.587-3.076,5.589c-0.876,1.992-1.573,4.123-2.148,6.333c-0.594,2.2-1.044,4.494-1.422,6.835
			c-1.516,9.386-1.751,19.48-2.904,29.931c-0.569,5.228-1.395,10.578-2.8,15.957c-0.715,2.689-1.607,5.376-2.668,8.037
			c-1.112,2.649-2.415,5.26-3.96,7.772c-1.592,2.483-3.377,4.88-5.423,7.064c-2.073,2.145-4.282,4.201-6.727,5.903
			c-4.825,3.53-10.234,5.995-15.709,7.833c-5.492,1.827-11.104,2.985-16.717,3.75c-2.812,0.406-5.613,0.634-8.438,0.868
			l-4.288,0.229c-1.447,0.084-2.741,0.071-4.121,0.112l-2.041,0.042l-2.215-0.024c-1.423-0.03-2.845-0.027-4.272-0.087l-4.292-0.252
			c-1.433-0.079-2.869-0.277-4.306-0.413c-5.745-0.653-11.521-1.736-17.208-3.446c-5.682-1.705-11.267-4.052-16.509-7.103
			c-5.245-3.042-10.129-6.786-14.47-11.053c-4.36-4.256-8.14-9.045-11.411-14.079c-3.281-5.035-6.075-10.314-8.531-15.687
			c-4.854-10.777-8.395-21.879-11.786-32.839c-3.39-10.951-6.572-21.855-10.737-32.083c-2.104-5.087-4.407-10.042-7.206-14.537
			c-1.368-2.276-2.904-4.386-4.496-6.425c-1.658-1.962-3.342-3.901-5.251-5.543l-0.696-0.64l-0.735-0.588l-1.467-1.177
			c-1.039-0.691-2.016-1.482-3.111-2.084c-2.098-1.358-4.403-2.363-6.719-3.339c-2.382-0.844-4.801-1.629-7.343-2.112l-1.896-0.387
			l-1.938-0.268c-1.308-0.217-2.556-0.295-3.807-0.396c-10.858-0.694-21.697,0.531-30.81,4.923
			c-2.268,1.105-4.464,2.344-6.487,3.843c-1.046,0.699-1.993,1.541-2.98,2.326c-0.476,0.417-0.933,0.858-1.402,1.284
			c-0.476,0.418-0.927,0.867-1.363,1.336c-3.591,3.626-6.606,7.959-9.249,12.618c-5.226,9.411-8.859,20.106-12.293,31.019
			c-3.451,10.925-6.657,22.188-11.15,33.289c-2.228,5.549-4.851,11.047-8,16.343c-1.618,2.628-3.304,5.235-5.247,7.701
			c-0.922,1.26-1.982,2.436-2.988,3.643c-0.525,0.588-1.076,1.158-1.613,1.736c-0.535,0.582-1.083,1.152-1.667,1.691
			c-2.235,2.251-4.746,4.234-7.304,6.126c-2.633,1.788-5.333,3.5-8.198,4.851c-5.68,2.818-11.715,4.701-17.755,5.771
			c-3.037,0.547-6.008,0.922-9.09,1.15l-2.322,0.147l-1.16,0.07l-1.063,0.021l-2.114,0.036l-1.056,0.019l-0.671,0.006l-0.554-0.012
			c-5.896-0.051-11.846-0.479-17.785-1.556c-5.928-1.084-11.87-2.804-17.494-5.535c-2.803-1.385-5.502-3.023-8.053-4.888
			c-2.518-1.913-4.865-4.051-6.981-6.38c-4.191-4.701-7.376-10.092-9.688-15.58c-1.185-2.743-2.157-5.52-3.001-8.288
			c-0.857-2.77-1.576-5.536-2.209-8.283c-2.543-10.982-3.894-21.71-6.344-31.66c-2.425-9.893-6.064-19.094-12.734-25.005
			c-1.636-1.502-3.481-2.751-5.414-3.873c-1.932-1.129-4.06-1.967-6.208-2.754c-2.205-0.683-4.444-1.311-6.78-1.692l-1.743-0.308
			l-1.772-0.219c-1.189-0.173-2.344-0.247-3.5-0.333c-1.106-0.113-2.424-0.134-3.697-0.171l-0.956-0.028l-0.478-0.014
			c0.055-0.005-0.247,0.001-0.353,0.001l-1.825,0.016c-1.219-0.007-2.424,0.042-3.624,0.104c-1.207,0.034-2.392,0.138-3.575,0.243
			c-2.372,0.192-4.677,0.554-6.943,0.976c-2.223,0.506-4.441,1.029-6.466,1.836c-4.112,1.522-7.64,3.79-10.227,6.85
			c-2.611,3.042-4.313,6.905-5.356,11.158c-1.038,4.262-1.501,8.831-1.799,13.48c-0.291,4.659-0.456,9.406-0.829,14.222
			c-0.369,4.806-0.979,9.71-2.307,14.573c-1.328,4.849-3.568,9.681-6.92,13.695c-1.688,1.989-3.62,3.738-5.678,5.236
			c-2.051,1.528-4.28,2.672-6.5,3.711c-4.492,1.963-9.097,3.114-13.622,3.827c-2.264,0.351-4.516,0.61-6.748,0.764
			c-1.112,0.104-2.236,0.157-3.362,0.194c-1.12,0.042-2.263,0.104-3.306,0.092c-4.335,0.075-8.676-0.106-12.951-0.463
			c-8.532-0.746-17.027-2.372-24.704-6.109c-1.925-0.896-3.749-2.015-5.515-3.183c-1.726-1.238-3.412-2.53-4.896-4.035
			c-1.506-1.473-2.883-3.067-4.067-4.769c-1.211-1.684-2.243-3.464-3.118-5.282c-1.78-3.634-2.916-7.411-3.735-11.116
			c-0.807-3.714-1.286-7.375-1.644-10.943c-0.728-7.126-0.957-13.958-2.167-20.2c-0.607-3.109-1.489-6.054-2.847-8.612
			c-0.688-1.269-1.489-2.438-2.408-3.483c-0.944-1.02-2-1.907-3.142-2.673c-2.329-1.469-4.992-2.394-7.719-2.916
			c-0.689-0.109-1.375-0.217-2.057-0.325c-0.681-0.066-1.357-0.133-2.03-0.199c-0.696-0.048-1.424-0.065-2.129-0.099
			c-0.632-0.043-1.378,0.009-2.056,0.009c-2.775,0.05-5.486,0.099-8.131,0.147c-2.634,0.234-5.203,0.463-7.705,0.685
			c-9.977,1.21-18.711,3.562-25.969,6.459c-7.267,2.9-13.042,6.337-17.408,9.528c-4.381,3.192-7.34,6.153-9.226,8.224
			C0.562,287-0.242,288.216-0.242,288.216z"/>
	</g>
	<g>
		<path fill="#FFCC00" d="M114.278,172.944c0,0,0.984-0.047,2.89-0.138c0.954-0.03,2.135-0.128,3.534-0.247
			c1.401-0.093,3.017-0.297,4.844-0.505c3.644-0.486,8.129-1.24,13.208-2.762c5.059-1.537,10.722-3.906,16.246-7.765
			c5.523-3.853,10.724-9.318,15.038-16.207c4.378-6.863,7.945-15.003,11.949-23.764c2.011-4.38,4.165-8.92,6.749-13.473
			c2.615-4.529,5.649-9.109,9.536-13.261c1.933-2.078,4.055-4.052,6.364-5.866c2.323-1.795,4.829-3.418,7.478-4.841
			c5.311-2.835,11.182-4.779,17.235-6.012c6.076-1.205,12.301-1.783,18.683-1.841c6.336-0.061,13.007,0.411,19.675,2.221
			c3.326,0.923,6.66,2.161,9.835,3.89c3.172,1.718,6.198,3.888,8.835,6.491c5.333,5.202,8.985,11.841,11.5,18.565
			c2.536,6.761,4.113,13.699,5.543,20.576c1.422,6.881,2.662,13.747,4.327,20.415c1.656,6.658,3.777,13.13,6.894,18.87
			c3.103,5.743,7.34,10.609,12.725,14.105c5.364,3.525,11.792,5.714,18.61,6.903c3.408,0.607,6.923,0.955,10.482,1.143
			c1.784,0.078,3.575,0.136,5.381,0.13l1.297-0.002l1.421-0.026l0.71-0.014l0.647-0.028l1.295-0.054
			c7.1-0.379,14.111-1.58,20.542-4.031c6.445-2.41,12.282-6.073,17.172-10.943c4.919-4.843,8.897-10.827,12.204-17.354
			c3.307-6.541,5.964-13.615,8.385-20.897c2.42-7.29,4.604-14.802,6.975-22.395c2.389-7.585,4.899-15.293,8.267-22.866
			c3.359-7.553,7.518-15.076,13.253-21.711c2.861-3.306,6.114-6.356,9.708-8.973c3.589-2.621,7.508-4.795,11.578-6.478
			c8.17-3.364,16.8-4.749,25.142-4.983c0.524-0.021,1.046-0.03,1.566-0.032l1.643-0.012c1.005,0.023,1.873,0.012,3.02,0.069
			c2.203,0.072,4.242,0.251,6.376,0.496c4.221,0.511,8.456,1.383,12.58,2.755c8.275,2.661,15.97,7.56,21.883,13.764
			c5.979,6.182,10.326,13.362,13.778,20.574c3.457,7.24,6.066,14.592,8.418,21.847c2.342,7.261,4.401,14.447,6.513,21.479
			c4.24,14.027,8.538,27.614,15.08,39.489c3.254,5.923,7.054,11.383,11.5,16.086c4.438,4.706,9.503,8.657,15.028,11.708
			c5.525,3.048,11.447,5.283,17.518,6.799c6.072,1.519,12.274,2.348,18.433,2.719c3.073,0.184,6.156,0.235,9.236,0.208
			c3.028-0.025,6.073-0.136,9.044-0.352c5.951-0.432,11.731-1.288,17.149-2.776c5.412-1.483,10.458-3.634,14.714-6.629
			c4.26-2.987,7.625-6.879,9.953-11.294c2.35-4.411,3.702-9.27,4.523-14.115c0.815-4.857,1.115-9.721,1.26-14.461
			c0.245-9.491-0.043-18.531,0.58-26.943c0.316-4.203,0.849-8.254,1.818-12.054c0.951-3.797,2.365-7.337,4.262-10.382
			c1.886-3.053,4.275-5.551,6.815-7.442c2.537-1.911,5.206-3.225,7.741-4.214c5.111-1.921,9.693-2.591,13.374-2.97
			c3.692-0.363,6.532-0.381,8.44-0.377c1.908,0.028,2.894,0.042,2.894,0.042s-0.983,0.043-2.889,0.127
			c-1.902,0.102-4.729,0.303-8.364,0.853c-3.62,0.562-8.107,1.467-12.937,3.577c-2.394,1.08-4.866,2.467-7.145,4.377
			c-2.277,1.9-4.362,4.299-5.981,7.186c-3.293,5.788-4.532,13.302-4.755,21.45c-0.265,8.188,0.479,17.117,0.554,26.819
			c0.028,4.852-0.089,9.911-0.771,15.146c-0.692,5.218-1.959,10.666-4.488,15.878c-2.494,5.209-6.368,10.053-11.248,13.737
			c-4.866,3.708-10.552,6.343-16.472,8.133c-5.93,1.812-12.111,2.896-18.396,3.536c-3.151,0.319-6.303,0.525-9.531,0.646
			c-3.176,0.111-6.409,0.171-9.699,0.096c-6.561-0.162-13.28-0.807-20.028-2.24c-6.742-1.417-13.515-3.692-19.921-7.045
			c-6.415-3.327-12.415-7.76-17.64-13.028c-5.24-5.265-9.68-11.337-13.431-17.769c-7.501-12.915-12.44-27.085-16.896-41.227
			c-2.244-7.077-4.399-14.172-6.771-21.149c-2.375-6.968-4.956-13.841-8.154-20.272c-3.19-6.422-7.025-12.405-11.834-17.212
			c-4.784-4.832-10.566-8.357-17.053-10.458c-3.238-1.061-6.652-1.753-10.154-2.159c-1.731-0.19-3.575-0.341-5.268-0.384
			c-0.801-0.045-1.882-0.034-2.826-0.05l-1.283,0.02c-0.455,0.003-0.908,0.013-1.359,0.035c-7.236,0.236-14.308,1.479-20.658,4.135
			c-6.353,2.648-11.903,6.765-16.438,12.086c-4.553,5.312-8.125,11.719-11.115,18.55c-5.992,13.729-9.875,28.944-14.985,44.095
			c-2.568,7.583-5.448,15.205-9.224,22.587c-3.776,7.357-8.515,14.521-14.692,20.548c-6.128,6.048-13.678,10.762-21.661,13.633
			c-7.998,2.899-16.271,4.132-24.33,4.439l-1.552,0.041l-0.775,0.019l-0.712,0.003l-1.422,0.004l-1.544-0.02
			c-1.981-0.024-3.969-0.118-5.955-0.236c-3.975-0.271-7.957-0.724-11.921-1.492c-7.899-1.507-15.853-4.254-22.792-8.964
			c-3.459-2.337-6.619-5.145-9.325-8.275c-2.712-3.129-4.972-6.561-6.822-10.094c-3.703-7.093-5.787-14.496-7.4-21.644
			c-1.594-7.169-2.668-14.18-3.889-20.932c-1.218-6.744-2.557-13.265-4.633-19.245c-2.063-5.971-4.935-11.356-8.948-15.477
			c-3.973-4.152-9.069-7.022-14.645-8.742c-5.586-1.734-11.511-2.409-17.443-2.556c-5.905-0.134-11.754,0.236-17.298,1.159
			c-11.107,1.841-21.008,6.557-28.151,13.858c-7.244,7.223-11.987,16.208-16.311,24.688c-2.16,4.262-4.228,8.45-6.373,12.443
			c-2.176,3.979-4.411,7.776-6.87,11.24c-4.842,6.977-10.635,12.516-16.609,16.265c-5.973,3.783-11.959,5.881-17.202,7.157
			c-5.265,1.263-9.831,1.768-13.522,2.052c-1.85,0.112-3.481,0.217-4.895,0.218c-1.412,0.03-2.596,0.055-3.55,0.024
			C115.263,172.959,114.278,172.944,114.278,172.944z"/>
	</g>
	<g>
		<path fill="#FFCC00" d="M178.651,466.349c0,0,3.527-0.177,10.103-0.693c3.284-0.272,7.335-0.675,12.023-1.379
			c2.339-0.361,4.844-0.815,7.403-1.517c1.276-0.352,2.564-0.776,3.78-1.322c1.204-0.535,2.363-1.255,2.986-2.065
			c0.597-0.808,0.641-1.497,0.261-2.684c-0.393-1.157-1.206-2.472-2.126-3.826c-0.922-1.372-1.981-2.791-2.967-4.528
			c-0.485-0.879-0.966-1.838-1.291-3.028c-0.323-1.164-0.454-2.698,0.068-4.194c0.508-1.496,1.534-2.649,2.53-3.438
			c1.011-0.798,2.05-1.358,3.076-1.815c2.057-0.907,4.108-1.469,6.182-1.946c4.143-0.928,8.381-1.437,12.747-1.796
			c4.363-0.359,8.848-0.578,13.455-0.712c1.257-0.028,2.262-0.043,3.543-0.021c1.241,0.012,2.444,0.058,3.676,0.123
			c2.457,0.136,4.959,0.383,7.495,0.791c5.06,0.812,10.306,2.265,15.315,4.861c2.499,1.293,4.921,2.874,7.163,4.736
			c2.237,1.866,4.284,4.013,6.083,6.349c3.625,4.677,6.206,10.05,8.172,15.53c1.967,5.497,3.339,11.146,4.559,16.809
			c2.439,11.296,4.161,22.874,8.048,33.532c1.958,5.294,4.439,10.316,7.834,14.557c3.369,4.258,7.651,7.694,12.667,10.171
			c5.011,2.483,10.688,4.057,16.647,4.914c5.944,0.875,12.228,1.082,18.48,0.837c12.317-0.502,24.536-3.732,33.972-11.17
			c4.734-3.685,8.803-8.326,12.214-13.624c3.426-5.29,6.224-11.187,8.686-17.359c4.939-12.374,8.454-25.815,12.925-39.392
			c2.244-6.792,4.733-13.65,7.957-20.377c3.221-6.71,7.186-13.346,12.442-19.202c5.214-5.859,11.802-10.788,19.062-13.985
			c7.253-3.246,14.986-4.828,22.525-5.387c3.79-0.28,7.516-0.297,11.229-0.146c3.763,0.158,7.508,0.543,11.277,1.217
			c3.762,0.686,7.528,1.67,11.198,3.089c3.668,1.407,7.223,3.289,10.49,5.591c3.27,2.301,6.228,5.044,8.762,8.055
			c2.539,3.011,4.656,6.271,6.437,9.604c3.561,6.686,5.828,13.599,7.703,20.345c1.859,6.758,3.312,13.408,4.854,19.866
			c1.541,6.457,3.161,12.732,5.182,18.699c2.027,5.96,4.521,11.595,7.747,16.605c3.211,5.017,7.162,9.387,11.771,12.904
			c4.604,3.521,9.812,6.22,15.297,8.189c5.484,1.973,11.208,3.323,16.974,4.184c5.747,0.874,11.617,1.262,17.277,1.394
			c5.946,0.064,11.478-0.061,17.087-0.445c11.118-0.766,21.763-2.622,31.304-6.132c9.571-3.443,17.77-8.936,24.029-15.758
			c6.316-6.805,10.733-14.707,14.923-22.172c4.184-7.474,8.29-14.619,13.33-20.358c4.988-5.771,10.801-9.971,16.487-12.628
			c5.696-2.672,11.136-4.077,15.876-4.92c4.75-0.839,8.83-1.193,12.137-1.339c1.651-0.107,3.113-0.104,4.373-0.13
			c1.26-0.035,2.32-0.013,3.174,0.001c1.706,0.024,2.587,0.037,2.587,0.037s-0.88,0.038-2.584,0.112
			c-0.852,0.036-1.909,0.074-3.163,0.182c-1.253,0.098-2.707,0.182-4.343,0.378c-3.276,0.312-7.307,0.872-11.938,1.938
			c-4.621,1.065-9.862,2.724-15.199,5.566c-5.354,2.797-10.655,7.002-15.152,12.684c-4.548,5.659-8.212,12.698-12.066,20.359
			c-3.887,7.624-8.166,16.004-14.707,23.616c-6.477,7.621-15.354,14.036-25.539,18.109c-10.16,4.198-21.379,6.414-32.927,7.549
			c-5.738,0.564-11.786,0.864-17.599,0.964c-6.096,0.105-12.175-0.047-18.433-0.732c-6.229-0.693-12.585-1.834-18.847-3.914
			c-6.259-2.041-12.449-4.986-18.068-9.029c-5.625-4.028-10.569-9.19-14.517-14.984c-3.974-5.792-6.981-12.148-9.395-18.609
			c-4.857-12.944-7.291-26.392-11.03-39.019c-1.863-6.299-4.044-12.411-7.057-17.813c-2.995-5.41-6.875-10-11.746-13.275
			c-9.706-6.623-23.217-8.075-36.211-7.145c-6.429,0.517-12.645,1.924-18.249,4.44c-5.614,2.503-10.554,6.203-14.695,10.861
			c-4.157,4.648-7.52,10.212-10.36,16.177c-2.834,5.979-5.18,12.351-7.355,18.866c-4.352,13.046-7.932,26.706-13.299,40.099
			c-2.698,6.684-5.892,13.305-9.98,19.528c-4.068,6.215-9.148,11.99-15.187,16.607c-6.021,4.633-12.928,8.021-19.99,10.073
			c-7.079,2.087-14.218,2.995-21.261,3.197c-6.936,0.16-13.793-0.158-20.67-1.271c-6.846-1.099-13.692-3.05-20.032-6.312
			c-6.337-3.233-12.03-7.94-16.271-13.502c-4.286-5.549-7.194-11.738-9.246-17.839c-2.072-6.118-3.39-12.184-4.517-18.064
			c-1.118-5.886-2.017-11.605-3.052-17.104c-1.035-5.494-2.194-10.779-3.809-15.677c-1.614-4.89-3.683-9.398-6.449-13.156
			c-2.754-3.764-6.171-6.778-10.079-8.977c-3.903-2.208-8.243-3.614-12.647-4.479c-2.204-0.436-4.427-0.738-6.646-0.938
			c-1.106-0.099-2.228-0.181-3.298-0.229c-1.029-0.065-2.321-0.076-3.343-0.111c-4.511-0.121-8.883-0.151-13.089-0.04
			c-4.198,0.13-8.253,0.354-11.996,0.903c-1.858,0.286-3.651,0.663-5.177,1.211c-0.761,0.27-1.436,0.597-1.943,0.934
			c-0.511,0.345-0.777,0.658-0.906,0.917c-0.133,0.256-0.195,0.642-0.086,1.234c0.104,0.581,0.367,1.276,0.695,1.978
			c0.669,1.418,1.586,2.876,2.462,4.393c0.868,1.53,1.775,3.107,2.291,5.078c0.239,0.985,0.356,2.114,0.122,3.264
			c-0.227,1.152-0.84,2.2-1.549,2.95c-1.453,1.494-3.06,2.163-4.541,2.703c-1.498,0.521-2.944,0.855-4.341,1.115
			c-2.794,0.512-5.396,0.751-7.812,0.914c-4.832,0.313-8.923,0.249-12.234,0.208c-3.312-0.058-5.845-0.16-7.552-0.251
			C179.532,466.396,178.651,466.349,178.651,466.349z"/>
	</g>
</g>
<g id="Title">
	<g>
		<g>
			<path fill="#FFFFFF" d="M312.638,469.408c3.327,1.197,4.993,1.781,8.335,2.918c1.763,0.6,3.03,1.562,3.808,2.904
				c0.778,1.343,0.911,2.817,0.386,4.428c-0.396,1.217-1.07,2.154-2.028,2.81c-0.958,0.656-3.741,1.106-3.741,1.106
				c-0.014,0.064,3.033,1.973,3.671,3.234c0.638,1.263,0.696,2.714,0.166,4.358c-0.65,2.019-1.946,3.369-3.907,4.043
				s-4.289,0.563-6.961-0.351c-3.165-1.082-4.744-1.634-7.896-2.769C307.738,483.019,309.372,478.48,312.638,469.408z
				 M316.561,475.763c-0.6,1.73-0.9,2.595-1.5,4.325c0.247,0.086,0.371,0.127,0.617,0.212c0.834,0.288,1.565,0.308,2.192,0.059
				s1.064-0.738,1.312-1.469c0.226-0.666,0.207-1.231-0.054-1.691c-0.262-0.459-0.771-0.815-1.53-1.076
				C317.182,475.979,316.975,475.906,316.561,475.763z M313.595,484.316c-0.738,2.129-1.109,3.193-1.847,5.322
				c0.734,0.255,1.101,0.381,1.835,0.633c0.91,0.312,1.75,0.32,2.519,0.026c0.767-0.294,1.283-0.835,1.546-1.62
				c0.271-0.81,0.187-1.559-0.251-2.247c-0.437-0.688-1.099-1.184-1.986-1.488C314.685,484.693,314.321,484.568,313.595,484.316z"/>
			<path fill="#FFFFFF" d="M329.313,475.08c2.484,0.796,3.729,1.184,6.221,1.945c-0.085,3.169-0.122,4.753-0.181,7.926
				c1.688-2.683,2.525-4.022,4.189-6.716c2.53,0.75,3.798,1.115,6.336,1.831c-3.663,4.396-5.523,6.579-9.299,10.914
				c-1.249,4.236-1.872,6.355-3.122,10.592c-2.327-0.686-3.488-1.035-5.809-1.749c1.299-4.222,1.948-6.333,3.246-10.555
				C330.203,483.588,329.886,480.75,329.313,475.08z"/>
			<path fill="#FFFFFF" d="M358.619,483.479c2.263,0.573,3.398,0.852,5.667,1.398c-1.692,7.029-2.541,10.543-4.234,17.572
				c-0.502,2.083-1.299,3.542-2.401,4.369c-1.104,0.829-2.622,1.006-4.542,0.521c-1.044-0.264-2.014-0.642-2.909-1.136
				c0.485-1.874,0.727-2.811,1.212-4.685c0.336,0.36,0.655,0.579,0.952,0.655c0.475,0.122,0.873,0.047,1.194-0.222
				s0.566-0.732,0.733-1.392C356.024,493.728,356.888,490.312,358.619,483.479z"/>
			<path fill="#FFFFFF" d="M375.598,487.056c2.908,0.629,4.976,2.178,6.234,4.675c1.259,2.498,1.54,5.614,0.807,9.356
				c-0.736,3.754-2.196,6.575-4.413,8.449s-4.758,2.517-7.583,1.907c-2.934-0.633-4.948-2.302-6.01-4.969s-1.171-5.718-0.365-9.15
				c0.558-2.378,1.44-4.421,2.634-6.137c1.193-1.715,2.573-2.908,4.143-3.589C372.612,486.919,374.126,486.737,375.598,487.056z
				 M375.133,492.152c-1.139-0.245-2.145,0.201-3.031,1.338c-0.887,1.139-1.579,2.806-2.069,5.01
				c-0.498,2.238-0.593,4.061-0.273,5.47c0.319,1.409,1.015,2.234,2.079,2.464c1.052,0.227,2.037-0.254,2.946-1.44
				c0.909-1.187,1.589-2.882,2.047-5.082c0.475-2.278,0.523-4.096,0.157-5.45S376.004,492.34,375.133,492.152z"/>
			<path fill="#FFFFFF" d="M387.373,489.859c2.293,0.438,3.44,0.648,5.737,1.059c0.566,3.205,0.86,4.809,1.461,8.013
				c0.448,2.381,0.765,4.426,0.941,6.139c0.122,0.021,0.182,0.029,0.303,0.05c0.213-1.618,0.321-2.427,0.535-4.045
				c0.628-3.729,0.942-5.592,1.569-9.32c2.168,0.365,3.253,0.542,5.424,0.883c-1.495,9.525-2.243,14.286-3.74,23.812
				c-2.408-0.378-3.611-0.571-6.016-0.978c-0.648-3.208-0.965-4.814-1.579-8.023c-0.458-2.385-0.758-4.439-0.912-6.164
				c-0.127-0.022-0.192-0.035-0.32-0.058c-0.232,1.615-0.347,2.427-0.578,4.042c-0.669,3.729-1.002,5.591-1.672,9.319
				c-2.271-0.407-3.405-0.618-5.672-1.051C384.664,504.064,385.567,499.331,387.373,489.859z"/>
			<path fill="#FFFFFF" d="M406.789,493.164c2.284,0.342,3.428,0.506,5.715,0.821c-1.316,9.552-1.975,14.328-3.294,23.88
				c-2.398-0.331-3.598-0.503-5.994-0.861C404.647,507.468,405.361,502.7,406.789,493.164z"/>
			<path fill="#FFFFFF" d="M425.14,495.564c2.488,0.278,3.733,0.408,6.224,0.654c1.001,3.808,1.516,5.712,2.568,9.516
				c1.728-3.548,2.58-5.327,4.258-8.889c2.5,0.212,3.75,0.312,6.253,0.492c-0.692,9.617-1.039,14.425-1.735,24.042
				c-2.338-0.169-3.506-0.26-5.842-0.455c0.301-3.596,0.451-5.391,0.751-8.986c0.19-2.273,0.479-4.573,0.864-6.899
				c-0.171-0.015-0.256-0.022-0.427-0.037c-0.346,1.14-0.973,2.692-1.892,4.659c-1.271,2.714-1.915,4.068-3.214,6.774
				c-0.776-2.896-1.157-4.346-1.905-7.245c-0.544-2.112-0.878-3.753-1.012-4.925c-0.178-0.018-0.268-0.025-0.445-0.043
				c-0.017,2.188-0.147,4.496-0.392,6.938c-0.36,3.59-0.539,5.387-0.9,8.977c-2.333-0.234-3.5-0.36-5.831-0.621
				C423.536,509.935,424.071,505.146,425.14,495.564z"/>
			<path fill="#FFFFFF" d="M455.648,497.62c2.956,0.146,5.239,1.335,6.879,3.593c1.641,2.259,2.422,5.288,2.308,9.1
				c-0.115,3.823-1.091,6.847-2.965,9.057c-1.874,2.211-4.264,3.259-7.137,3.119c-2.982-0.146-5.227-1.462-6.7-3.92
				s-2.075-5.451-1.84-8.969c0.163-2.438,0.698-4.596,1.591-6.483c0.894-1.887,2.054-3.289,3.483-4.217
				C452.696,497.973,454.153,497.546,455.648,497.62z M456.018,502.724c-1.157-0.056-2.074,0.55-2.759,1.815
				c-0.686,1.268-1.095,3.024-1.22,5.279c-0.127,2.289,0.077,4.104,0.619,5.443s1.355,2.034,2.437,2.087
				c1.069,0.052,1.959-0.583,2.659-1.901c0.701-1.318,1.095-3.101,1.188-5.346c0.097-2.325-0.149-4.126-0.729-5.402
				C457.631,503.423,456.904,502.767,456.018,502.724z"/>
			<path fill="#FFFFFF" d="M465.667,498.41c6.185,0.18,9.278,0.22,15.465,0.205c0.005,1.956,0.007,2.937,0.012,4.893
				c-2.007,0.005-3.011,0-5.018-0.016c-0.059,7.686-0.09,11.53-0.151,19.216c-2.394-0.019-3.589-0.036-5.983-0.082
				c0.15-7.685,0.224-11.527,0.372-19.212c-1.936-0.037-2.904-0.059-4.839-0.115C465.581,501.344,465.611,500.365,465.667,498.41z"
				/>
			<path fill="#FFFFFF" d="M483.782,498.604c2.269-0.018,3.404-0.033,5.673-0.076c0.072,3.725,0.106,5.588,0.178,9.312
				c1.846-0.035,2.768-0.057,4.613-0.109c-0.105-3.724-0.155-5.587-0.262-9.311c2.288-0.064,3.433-0.104,5.721-0.195
				c0.387,9.635,0.576,14.452,0.959,24.087c-2.399,0.096-3.6,0.137-6,0.205c-0.113-4.035-0.169-6.053-0.283-10.088
				c-1.862,0.053-2.795,0.073-4.658,0.109c0.077,4.036,0.116,6.054,0.192,10.09c-2.379,0.046-3.567,0.062-5.946,0.08
				C483.896,513.065,483.858,508.246,483.782,498.604z"/>
			<path fill="#FFFFFF" d="M503.409,514.983c2.026,1.636,3.924,2.402,5.661,2.304c0.887-0.05,1.631-0.367,2.229-0.946
				c0.598-0.578,0.871-1.252,0.822-2.022c-0.039-0.62-0.299-1.165-0.774-1.615c-0.481-0.455-1.376-0.953-2.654-1.478
				c-1.798-0.737-3.197-1.597-4.17-2.569c-0.978-0.978-1.509-2.259-1.581-3.834c-0.092-2,0.552-3.718,1.915-5.163
				c1.362-1.445,3.207-2.232,5.555-2.377c1.611-0.1,3.313,0.216,5.118,0.939c0.166,2.296,0.248,3.445,0.414,5.741
				c-1.668-1.347-3.204-1.978-4.631-1.888c-0.708,0.045-1.308,0.286-1.803,0.73c-0.495,0.445-0.729,0.96-0.694,1.547
				c0.033,0.575,0.281,1.058,0.729,1.447c0.439,0.384,1.242,0.791,2.402,1.204c1.918,0.683,3.41,1.507,4.449,2.472
				c1.045,0.971,1.639,2.343,1.771,4.112c0.167,2.229-0.534,4.195-2.127,5.889c-1.592,1.693-3.634,2.619-6.1,2.762
				c-1.914,0.11-4.008-0.321-6.26-1.302C503.572,518.555,503.519,517.365,503.409,514.983z"/>
			<path fill="#FFFFFF" d="M528.829,496.199c2.491-0.247,3.735-0.377,6.224-0.656c1.775,3.516,2.671,5.268,4.496,8.768
				c0.95-3.83,1.416-5.746,2.313-9.58c2.492-0.314,3.738-0.48,6.228-0.827c1.331,9.55,1.991,14.327,3.318,23.877
				c-2.325,0.323-3.487,0.479-5.815,0.776c-0.456-3.579-0.682-5.369-1.139-8.948c-0.289-2.263-0.488-4.572-0.598-6.927
				c-0.17,0.021-0.255,0.033-0.425,0.055c-0.102,1.187-0.391,2.838-0.879,4.953c-0.678,2.919-1.024,4.374-1.731,7.291
				c-1.364-2.671-2.038-4.008-3.376-6.687c-0.974-1.952-1.644-3.484-2.02-4.603c-0.178,0.02-0.266,0.027-0.443,0.047
				c0.439,2.143,0.797,4.432,1.067,6.872c0.397,3.586,0.594,5.379,0.99,8.965c-2.331,0.258-3.499,0.38-5.832,0.611
				C530.258,510.591,529.784,505.795,528.829,496.199z"/>
			<path fill="#FFFFFF" d="M551.278,493.45c2.257-0.329,3.384-0.499,5.638-0.854c0.996,6.309,1.492,9.463,2.486,15.771
				c0.197,1.252,0.527,2.166,0.995,2.738c0.468,0.573,1.071,0.799,1.806,0.68c0.771-0.125,1.301-0.508,1.584-1.144
				s0.328-1.526,0.137-2.675c-1.071-6.43-1.603-9.645-2.676-16.074c2.266-0.378,3.396-0.574,5.658-0.979
				c1.169,6.539,1.752,9.811,2.92,16.35c0.441,2.473,0.066,4.511-1.145,6.113c-1.21,1.603-3.143,2.631-5.782,3.059
				c-2.555,0.414-4.645,0.062-6.254-1.035s-2.6-2.94-2.975-5.517C552.714,503.311,552.237,500.023,551.278,493.45z"/>
			<path fill="#FFFFFF" d="M570.113,490.33c5.512-1.022,8.264-1.57,13.752-2.751c0.408,1.898,0.61,2.849,1.019,4.747
				c-3.276,0.705-4.917,1.043-8.202,1.691c0.345,1.743,0.519,2.613,0.863,4.356c3.089-0.61,4.631-0.928,7.712-1.587
				c0.394,1.838,0.589,2.757,0.981,4.595c-3.109,0.665-4.666,0.985-7.783,1.602c0.402,2.034,0.604,3.052,1.005,5.086
				c3.38-0.668,5.065-1.014,8.437-1.738c0.414,1.926,0.623,2.889,1.037,4.814c-5.757,1.237-8.643,1.813-14.424,2.886
				C572.753,504.55,571.873,499.812,570.113,490.33z"/>
			<path fill="#FFFFFF" d="M586.712,486.957c2.249-0.497,3.372-0.754,5.616-1.277c1.745,7.472,2.615,11.208,4.358,18.68
				c3.203-0.748,4.805-1.136,7.998-1.936c0.479,1.911,0.716,2.867,1.194,4.778c-5.571,1.396-8.364,2.054-13.963,3.292
				C589.835,501.079,588.795,496.372,586.712,486.957z"/>
			<path fill="#FFFFFF" d="M601.379,483.479c2.236-0.566,3.354-0.855,5.586-1.449c1.972,7.415,2.957,11.118,4.928,18.533
				c3.185-0.847,4.776-1.283,7.95-2.182c0.536,1.896,0.803,2.845,1.339,4.74c-5.537,1.567-8.312,2.312-13.881,3.724
				C604.934,497.498,603.748,492.825,601.379,483.479z"/>
			<path fill="#FFFFFF" d="M615.963,479.544c5.419-1.552,8.121-2.367,13.506-4.076c0.588,1.852,0.879,2.774,1.467,4.626
				c-3.215,1.021-4.824,1.519-8.052,2.483c0.509,1.702,0.766,2.553,1.274,4.255c3.034-0.907,4.547-1.373,7.569-2.329
				c0.566,1.792,0.849,2.69,1.415,4.482c-3.051,0.965-4.576,1.433-7.639,2.348c0.594,1.987,0.892,2.98,1.485,4.968
				c3.319-0.992,4.976-1.501,8.282-2.551c0.596,1.878,0.893,2.816,1.488,4.694c-5.646,1.792-8.481,2.646-14.165,4.273
				C619.942,493.448,618.616,488.813,615.963,479.544z"/>
			<path fill="#FFFFFF" d="M632.06,474.639c3.389-1.096,5.078-1.658,8.451-2.817c1.907-0.655,3.614-0.723,5.138-0.188
				c1.522,0.535,2.605,1.675,3.235,3.431c0.518,1.443,0.531,2.827,0.031,4.147c-0.5,1.322-3.048,3.772-3.048,3.772
				c0.026,0.06,4.089,0.396,5.42,2.49c1.686,2.649,2.535,3.976,4.24,6.616c-2.504,0.901-3.758,1.343-6.271,2.211
				c-1.238-2.395-1.855-3.596-3.085-5.994c-0.53-1.012-1.067-1.696-1.61-2.058c-0.544-0.363-1.201-0.414-1.976-0.152
				c-0.208,0.07-0.312,0.104-0.52,0.175c1.266,3.761,1.896,5.644,3.161,9.404c-2.299,0.773-3.447,1.151-5.753,1.897
				C636.509,488.399,635.026,483.813,632.06,474.639z M639.036,477.268c0.659,1.959,0.988,2.937,1.647,4.896
				c0.488-0.164,0.733-0.247,1.222-0.413c0.87-0.295,1.452-0.771,1.739-1.417c0.288-0.646,0.301-1.348,0.041-2.099
				c-0.264-0.763-0.658-1.264-1.187-1.509c-0.527-0.244-1.194-0.227-2,0.047C639.914,476.971,639.621,477.07,639.036,477.268z"/>
		</g>
	</g>
	<g>
		<g>
			<path fill="#FFFFFF" d="M158.951,168.091c4.86-2.978,7.302-4.436,12.212-7.293c6.466,4.926,9.662,7.422,15.979,12.477
				c-1.073-8.02-1.566-12.045-2.461-20.12c4.976-2.732,7.476-4.069,12.498-6.68c7.54,14.506,15.074,29.014,22.614,43.52
				c-4.121,2.143-6.174,3.236-10.262,5.467c-3.516-6.444-5.274-9.667-8.79-16.11c-2.223-4.074-4.303-8.304-6.226-12.701
				c-0.326,0.178-0.49,0.266-0.815,0.444c0.66,2.337,1.287,5.708,1.917,10.1c0.864,6.063,1.32,9.087,2.283,15.118
				c-4.657-3.942-7.005-5.896-11.745-9.769c-3.453-2.823-6.021-5.097-7.673-6.846c-0.335,0.196-0.504,0.294-0.839,0.491
				c2.621,3.598,5.186,7.554,7.707,11.863c3.707,6.336,5.561,9.506,9.268,15.842c-4.036,2.362-6.044,3.564-10.043,6.015
				C176.035,195.969,167.494,182.029,158.951,168.091z"/>
			<path fill="#FFFFFF" d="M219.449,134.562c6.03-2.831,11.754-2.932,17.026-0.357c5.271,2.576,9.384,7.478,12.436,14.61
				c3.061,7.155,3.81,13.575,2.383,19.257c-1.427,5.682-4.656,9.661-9.782,12.061c-5.324,2.492-10.45,2.333-15.513-0.514
				c-5.064-2.847-9.267-7.42-12.514-13.815c-2.25-4.43-3.534-8.781-3.803-13.067c-0.27-4.285,0.523-8.034,2.383-11.226
				C213.924,138.321,216.397,135.995,219.449,134.562z M225.07,143.343c-2.299,1.073-3.489,3.108-3.554,6.075
				c-0.065,2.968,0.912,6.518,2.907,10.656c2.025,4.201,4.188,7.223,6.466,9.081c2.278,1.859,4.396,2.325,6.383,1.396
				c1.963-0.918,2.962-2.887,3.018-5.927c0.056-3.04-0.844-6.645-2.729-10.809c-1.952-4.313-4.071-7.348-6.378-9.091
				C228.876,142.982,226.829,142.521,225.07,143.343z"/>
			<path fill="#FFFFFF" d="M244.292,124.432c7.261-3.034,10.909-4.49,18.24-7.285c4.146-1.581,7.881-1.851,11.155-0.842
				c3.274,1.01,5.529,3.325,6.795,6.904c1.04,2.938,1.018,5.76-0.034,8.466c-1.052,2.707-6.227,7.812-6.227,7.812
				c0.057,0.119,8.389,0.657,11.095,4.915c3.426,5.389,5.123,8.092,8.481,13.515c-4.834,1.702-7.245,2.58-12.049,4.393
				c-2.619-4.813-3.937-7.216-6.588-12.015c-1.14-2.024-2.274-3.384-3.406-4.079c-1.132-0.695-2.478-0.74-4.031-0.132
				c-0.417,0.164-0.625,0.245-1.042,0.409c2.958,7.511,4.437,11.267,7.394,18.777c-4.367,1.72-6.543,2.603-10.882,4.416
				C256.893,154.603,250.594,139.517,244.292,124.432z M259.595,128.502c1.541,3.912,2.311,5.871,3.852,9.783
				c1.002-0.395,1.504-0.592,2.507-0.982c1.79-0.696,2.97-1.71,3.542-3.056c0.571-1.346,0.577-2.776,0.006-4.289
				c-0.579-1.535-1.431-2.529-2.562-2.977c-1.131-0.448-2.552-0.346-4.254,0.314C261.448,127.774,260.83,128.016,259.595,128.502z"
				/>
			<path fill="#FFFFFF" d="M279.246,111.049c10.861-3.67,21.731-7.127,32.717-10.405c1.101,3.824,1.65,5.737,2.751,9.562
				c-4.164,1.198-6.24,1.816-10.387,3.09c3.826,12.457,7.65,24.915,11.479,37.371c-4.458,1.369-6.682,2.078-11.118,3.54
				c-4.081-12.376-8.159-24.753-12.237-37.13c-3.98,1.312-5.967,1.986-9.93,3.368C281.211,116.687,280.557,114.807,279.246,111.049z
				"/>
			<path fill="#FFFFFF" d="M322.461,97.723c4.852-1.305,7.283-1.934,12.155-3.139c8.518,14.681,16.707,29.555,24.561,44.602
				c-4.935,1.102-7.397,1.68-12.312,2.892c-1.621-3.612-2.438-5.417-4.082-9.021c-3.773,0.943-5.659,1.43-9.42,2.437
				c0.291,3.955,0.442,5.93,0.757,9.881c-4.602,1.248-6.898,1.896-11.48,3.241C322.212,131.655,322.151,114.686,322.461,97.723z
				 M331.642,109.153c0.398,6.971,0.617,10.453,1.09,17.412c2.524-0.668,3.788-0.995,6.318-1.634
				C336.123,118.607,334.641,115.452,331.642,109.153z"/>
			<path fill="#FFFFFF" d="M352.042,90.538c7.588-1.647,11.393-2.412,19.018-3.82c4.312-0.796,7.995-0.382,11.004,1.206
				c3.009,1.588,4.796,4.273,5.397,8.022c0.494,3.078-0.024,5.847-1.526,8.316c-1.501,2.47-7.441,6.546-7.441,6.546
				c0.035,0.128,8.05,2.173,9.933,6.852c2.385,5.921,3.559,8.886,5.872,14.827c-5.008,0.794-7.511,1.219-12.504,2.124
				c-1.7-5.208-2.56-7.809-4.293-13.009c-0.752-2.197-1.617-3.743-2.594-4.632c-0.979-0.89-2.28-1.181-3.897-0.867
				c-0.435,0.084-0.652,0.126-1.086,0.211c1.554,7.921,2.332,11.884,3.885,19.805c-4.549,0.892-6.821,1.359-11.356,2.343
				C358.98,122.489,355.512,106.513,352.042,90.538z M366.203,97.342c0.81,4.126,1.214,6.188,2.023,10.314
				c1.044-0.205,1.566-0.306,2.611-0.506c1.864-0.357,3.19-1.139,3.984-2.357s1.049-2.623,0.76-4.214
				c-0.293-1.614-0.946-2.746-1.967-3.393c-1.021-0.646-2.422-0.805-4.194-0.468C368.132,96.964,367.489,97.089,366.203,97.342z"/>
			<path fill="#FFFFFF" d="M411.485,80.618c7.607-0.894,11.417-1.283,19.042-1.942c4.023-0.348,7.374,0.455,10.01,2.371
				c2.636,1.917,4.045,4.608,4.268,8.046c0.168,2.596-0.422,4.876-1.751,6.846c-1.329,1.97-6.235,5.005-6.235,5.005
				c0.026,0.131,7.261,1.333,9.405,3.239s3.304,4.624,3.51,8.134c0.253,4.305-1.156,7.815-4.162,10.565
				c-3.006,2.75-7.157,4.326-12.515,4.805c-6.344,0.567-9.514,0.895-15.844,1.639C415.302,113.09,413.396,96.854,411.485,80.618z
				 M424.878,88.763c0.361,3.709,0.541,5.563,0.902,9.272c0.536-0.052,0.805-0.078,1.342-0.129c1.813-0.172,3.207-0.743,4.188-1.723
				c0.98-0.98,1.408-2.25,1.275-3.815c-0.121-1.424-0.628-2.458-1.521-3.099c-0.893-0.64-2.188-0.884-3.877-0.727
				C426.263,88.629,425.801,88.673,424.878,88.763z M426.662,107.099c0.444,4.563,0.666,6.843,1.11,11.406
				c1.511-0.146,2.266-0.217,3.778-0.354c1.872-0.169,3.379-0.832,4.531-1.998c1.152-1.165,1.667-2.587,1.533-4.27
				c-0.137-1.729-0.878-3.063-2.233-3.998c-1.355-0.934-2.982-1.319-4.866-1.149C428.973,106.877,428.203,106.949,426.662,107.099z"
				/>
			<path fill="#FFFFFF" d="M469.355,75.729c6.509-0.155,11.682,2.059,15.395,6.539c3.713,4.48,5.469,10.625,5.392,18.382
				c-0.077,7.781-1.942,13.96-5.464,18.586c-3.521,4.626-7.984,6.965-13.515,7.091c-5.744,0.13-10.258-2.087-13.661-6.74
				c-3.403-4.653-5.357-10.54-5.747-17.701c-0.27-4.961,0.293-9.458,1.734-13.484c1.44-4.026,3.618-7.133,6.532-9.3
				C462.936,76.936,466.062,75.808,469.355,75.729z M470.929,86.033c-2.479,0.054-4.346,1.433-5.571,4.12
				c-1.225,2.688-1.744,6.331-1.587,10.921c0.159,4.661,0.904,8.3,2.21,10.921c1.306,2.621,3.018,3.901,5.161,3.854
				c2.118-0.047,3.787-1.445,5.035-4.204s1.861-6.421,1.813-10.991c-0.049-4.733-0.751-8.366-2.131-10.891
				C474.478,87.238,472.827,85.992,470.929,86.033z"/>
			<path fill="#FFFFFF" d="M503.268,76.654c4.984,0.152,7.475,0.253,12.455,0.506c3.882,16.516,7.391,33.119,10.545,49.789
				c-5.019-0.369-7.53-0.525-12.554-0.784c-0.503-3.926-0.762-5.89-1.288-9.815c-3.86-0.187-5.792-0.263-9.654-0.386
				c-0.859,3.87-1.28,5.806-2.115,9.679c-4.729-0.136-7.094-0.18-11.824-0.218C493.281,109.063,498.107,92.805,503.268,76.654z
				 M508.709,90.25c-1.626,6.789-2.42,10.185-3.97,16.983c2.591,0.09,3.884,0.143,6.474,0.261
				C510.248,100.595,509.748,97.146,508.709,90.25z"/>
			<path fill="#FFFFFF" d="M533.479,78.313c7.706,0.611,11.557,0.977,19.245,1.827c4.349,0.481,7.75,1.94,10.169,4.328
				c2.419,2.389,3.356,5.477,2.85,9.239c-0.416,3.089-1.715,5.59-3.863,7.521c-2.148,1.931-9,4.122-9,4.122
				c-0.004,0.133,7.064,4.402,7.515,9.425c0.571,6.357,0.84,9.535,1.337,15.89c-5.021-0.685-7.533-0.998-12.564-1.571
				c-0.121-5.477-0.192-8.216-0.349-13.694c-0.085-2.321-0.467-4.049-1.144-5.183c-0.678-1.134-1.836-1.788-3.471-1.954
				c-0.439-0.044-0.658-0.066-1.098-0.11c-0.801,8.032-1.201,12.048-2.002,20.08c-4.599-0.458-6.898-0.664-11.504-1.029
				C530.884,110.906,532.192,94.61,533.479,78.313z M545.023,88.912c-0.417,4.184-0.626,6.275-1.043,10.459
				c1.056,0.105,1.583,0.16,2.638,0.27c1.883,0.196,3.375-0.17,4.484-1.108s1.759-2.209,1.942-3.816
				c0.186-1.629-0.113-2.902-0.901-3.816c-0.788-0.914-2.079-1.468-3.868-1.656C546.976,89.107,546.324,89.042,545.023,88.912z"/>
			<path fill="#FFFFFF" d="M573.219,82.753c6.226,0.898,9.334,1.388,15.541,2.444c4.651,0.792,8.336,2.494,11.012,5.054
				c2.676,2.56,4.279,5.808,4.824,9.719s0.346,8.069-0.556,12.478c-1.517,7.417-4.483,12.998-8.794,16.814
				s-9.687,5.123-16.269,4.021c-5.102-0.854-7.655-1.252-12.771-1.99C568.536,115.112,570.889,98.934,573.219,82.753z
				 M584.08,94.073c-1.622,9.84-3.255,19.679-4.874,29.52c0.329,0.054,0.492,0.081,0.821,0.136
				c6.025,1.003,9.991-3.705,11.922-14.265c0.746-4.081,0.682-7.488-0.226-10.222s-2.923-4.379-6.027-4.9
				C585.051,94.233,584.727,94.18,584.08,94.073z"/>
			<path fill="#FFFFFF" d="M624.86,127.799c2.98,4.354,6.091,6.971,9.441,7.864c1.711,0.456,3.316,0.322,4.828-0.405
				c1.512-0.727,2.485-1.841,2.906-3.354c0.34-1.219,0.207-2.438-0.414-3.618c-0.629-1.194-2.037-2.745-4.204-4.576
				c-3.052-2.579-5.301-5.109-6.666-7.586c-1.373-2.493-1.714-5.299-0.946-8.414c0.975-3.955,3.301-6.927,7.034-8.864
				s8.152-2.236,13.18-0.849c3.451,0.952,6.805,2.81,10.01,5.565c-1.326,4.491-1.993,6.736-3.319,11.228
				c-2.37-3.803-5.077-6.127-8.055-6.955c-1.477-0.411-2.872-0.355-4.175,0.166s-2.104,1.363-2.413,2.517
				c-0.304,1.132-0.112,2.225,0.531,3.274c0.635,1.033,1.979,2.356,4.006,3.947c3.354,2.633,5.7,5.284,7.026,7.875
				c1.334,2.605,1.463,5.656,0.422,9.112c-1.311,4.354-4.065,7.569-8.187,9.711c-4.121,2.143-8.45,2.582-13.076,1.339
				c-3.59-0.964-7.176-3.03-10.833-6.2C623.117,134.866,623.7,132.51,624.86,127.799z"/>
			<path fill="#FFFFFF" d="M667.654,103.991c10.938,3.488,21.756,7.156,32.561,11.037c-1.381,3.732-2.07,5.6-3.451,9.332
				c-4.086-1.512-6.135-2.251-10.241-3.688c-4.304,12.3-8.61,24.6-12.911,36.901c-4.415-1.545-6.63-2.294-11.068-3.747
				c4.048-12.387,8.105-24.771,12.158-37.156c-3.982-1.303-5.979-1.938-9.979-3.171
				C665.896,109.696,666.481,107.794,667.654,103.991z"/>
			<path fill="#FFFFFF" d="M719.944,121.84c6.134,2.507,10.08,6.648,11.756,12.271c1.676,5.624,0.86,11.973-2.319,19.049
				c-3.189,7.099-7.41,11.997-12.556,14.795c-5.146,2.798-10.252,3.119-15.463,0.982c-5.411-2.219-8.725-6.083-10.029-11.726
				c-1.305-5.643-0.767-11.827,1.739-18.547c1.736-4.656,4.06-8.549,7.013-11.656c2.953-3.106,6.226-5.07,9.808-5.872
				C713.475,120.334,716.841,120.571,719.944,121.84z M717.284,131.922c-2.335-0.96-4.625-0.455-6.844,1.51
				c-2.219,1.965-4.161,5.09-5.854,9.36c-1.719,4.336-2.484,7.973-2.316,10.905c0.168,2.933,1.254,4.802,3.271,5.63
				c1.995,0.819,4.111,0.218,6.382-1.802s4.309-5.124,6.095-9.331c1.851-4.357,2.65-7.973,2.373-10.85
				C720.114,134.469,719.071,132.657,717.284,131.922z"/>
			<path fill="#FFFFFF" d="M744.197,133.251c7.176,3.3,10.747,5.011,17.84,8.55c4.012,2.002,6.781,4.59,8.289,7.701
				c1.508,3.111,1.349,6.347-0.428,9.703c-1.459,2.755-3.563,4.643-6.291,5.688c-2.729,1.046-10.062,0.654-10.062,0.654
				c-0.049,0.121,5.284,6.664,3.997,11.546c-1.628,6.18-2.461,9.264-4.159,15.417c-4.596-2.445-6.905-3.639-11.542-5.973
				c1.761-5.191,2.633-7.79,4.36-12.994c0.714-2.211,0.94-3.971,0.679-5.278c-0.263-1.307-1.151-2.334-2.663-3.072
				c-0.406-0.198-0.609-0.296-1.016-0.493c-3.521,7.263-5.283,10.895-8.805,18.158c-4.257-2.065-6.392-3.075-10.68-5.047
				C730.539,162.957,737.373,148.106,744.197,133.251z M751.638,147.302c-1.834,3.783-2.753,5.675-4.587,9.458
				c0.977,0.474,1.464,0.712,2.439,1.19c1.74,0.854,3.299,1.042,4.686,0.556s2.448-1.448,3.175-2.893
				c0.736-1.465,0.884-2.769,0.439-3.909c-0.444-1.14-1.493-2.122-3.146-2.935C753.442,148.18,752.842,147.886,751.638,147.302z"/>
			<path fill="#FFFFFF" d="M775.703,148.834c5.146,2.729,7.709,4.126,12.806,6.983c-1.386,6.349-2.102,9.514-3.575,15.83
				c4.659-4.498,7.008-6.732,11.742-11.171c5.133,2.98,7.686,4.503,12.764,7.615c-8.334,5.237-16.565,10.637-24.688,16.198
				c-4.532,7.759-6.799,11.64-11.331,19.399c-4.139-2.418-6.217-3.604-10.393-5.929c4.369-7.853,6.555-11.777,10.924-19.629
				C774.713,168.376,775.295,158.609,775.703,148.834z"/>
		</g>
	</g>
</g>
</svg>
